<svg width="581" height="161" viewBox="0 0 581 161" fill="none" xmlns="http://www.w3.org/2000/svg">
<rect width="581" height="161" fill="white"/>
<path d="M421 49.2769L413.5 44.9467L413.5 53.607L421 49.2769ZM363.313 49.2769L363.313 50.0269L414.25 50.0269L414.25 49.2769L414.25 48.5269L363.313 48.5269L363.313 49.2769Z" fill="black"/>
<rect x="218" y="31.2769" width="146" height="34.55" rx="12" fill="url(#paint0_linear_805_4)"/>
<path d="M218 50.2769L210.5 45.9467L210.5 54.607L218 50.2769ZM160.313 50.2769L160.313 51.0269L211.25 51.0269L211.25 50.2769L211.25 49.5269L160.313 49.5269L160.313 50.2769Z" fill="black"/>
<path d="M292 65.8269L292 31.1643" stroke="black"/>
<rect x="420.865" y="31" width="146" height="34.5537" rx="12" fill="#E03880"/>
<mask id="path-6-inside-1_805_4" fill="white">
<path d="M470.04 51.7318C468.73 51.7318 467.92 50.9418 467.92 49.6618V46.3018C467.92 45.0218 468.73 44.2318 470.04 44.2318C471.33 44.2318 472.15 45.0418 472.15 46.3318H471.36C471.36 45.4518 470.86 44.9418 470.04 44.9418C469.21 44.9418 468.71 45.4418 468.71 46.3018V49.6618C468.71 50.5218 469.21 51.0218 470.04 51.0218C470.86 51.0218 471.36 50.5118 471.36 49.6318H472.15C472.15 50.9218 471.33 51.7318 470.04 51.7318ZM475.946 51.7218C474.666 51.7218 473.846 50.9118 473.846 49.5718V48.1918C473.846 46.8418 474.656 46.0418 475.946 46.0418C477.236 46.0418 478.046 46.8418 478.046 48.1918V49.5718C478.046 50.9118 477.236 51.7218 475.946 51.7218ZM475.946 51.0118C476.766 51.0118 477.256 50.5318 477.256 49.6418V48.1218C477.256 47.2318 476.756 46.7518 475.946 46.7518C475.136 46.7518 474.636 47.2318 474.636 48.1218V49.6418C474.636 50.5318 475.126 51.0118 475.946 51.0118ZM482.713 51.6318C481.763 51.6318 481.173 51.0518 481.173 50.1318V45.0518H479.293V44.3318H481.963V50.1318C481.963 50.6218 482.243 50.9118 482.713 50.9118H484.413V51.6318H482.713ZM488.709 51.6318C487.759 51.6318 487.169 51.0518 487.169 50.1318V45.0518H485.289V44.3318H487.959V50.1318C487.959 50.6218 488.239 50.9118 488.709 50.9118H490.409V51.6318H488.709ZM493.935 51.7318C492.655 51.7318 491.835 50.9118 491.835 49.5818V48.1818C491.835 46.8518 492.655 46.0318 493.935 46.0318C495.215 46.0318 496.035 46.8518 496.035 48.1018V49.0818H492.605V49.6618C492.605 50.5118 493.115 51.0418 493.935 51.0418C494.625 51.0418 495.115 50.7318 495.205 50.2418H495.995C495.865 51.1618 495.065 51.7318 493.935 51.7318ZM492.605 48.4518H495.265V48.1018C495.265 47.2118 494.775 46.6918 493.935 46.6918C493.095 46.6918 492.605 47.2118 492.605 48.1018V48.4518ZM500.011 51.7318C498.711 51.7318 497.871 50.9418 497.871 49.6618V48.1018C497.871 46.8218 498.721 46.0318 500.011 46.0318C501.271 46.0318 502.091 46.7618 502.121 47.9318H501.321C501.291 47.1818 500.801 46.7418 500.011 46.7418C499.191 46.7418 498.671 47.2418 498.671 48.1018V49.6618C498.671 50.5218 499.191 51.0218 500.011 51.0218C500.801 51.0218 501.291 50.5818 501.321 49.8318H502.121C502.091 51.0018 501.271 51.7318 500.011 51.7318ZM506.477 51.6318C505.587 51.6318 505.027 51.0918 505.027 50.2318V46.8518H503.437V46.1318H505.027V44.5818H505.827V46.1318H508.087V46.8518H505.827V50.2318C505.827 50.6518 506.077 50.9118 506.477 50.9118H508.037V51.6318H506.477ZM511.923 51.7218C510.643 51.7218 509.823 50.9118 509.823 49.5718V48.1918C509.823 46.8418 510.633 46.0418 511.923 46.0418C513.213 46.0418 514.023 46.8418 514.023 48.1918V49.5718C514.023 50.9118 513.213 51.7218 511.923 51.7218ZM511.923 51.0118C512.743 51.0118 513.233 50.5318 513.233 49.6418V48.1218C513.233 47.2318 512.733 46.7518 511.923 46.7518C511.113 46.7518 510.613 47.2318 510.613 48.1218V49.6418C510.613 50.5318 511.103 51.0118 511.923 51.0118ZM516.089 51.6318V46.1318H516.889V47.1518C517.009 46.4618 517.539 46.0318 518.369 46.0318C519.529 46.0318 520.159 46.7518 520.159 48.0018V48.4818H519.369V48.0018C519.369 47.1518 518.939 46.7218 518.139 46.7218C517.329 46.7218 516.889 47.2118 516.889 48.1018V51.6318H516.089Z"/>
</mask>
<path d="M470.04 51.7318C468.73 51.7318 467.92 50.9418 467.92 49.6618V46.3018C467.92 45.0218 468.73 44.2318 470.04 44.2318C471.33 44.2318 472.15 45.0418 472.15 46.3318H471.36C471.36 45.4518 470.86 44.9418 470.04 44.9418C469.21 44.9418 468.71 45.4418 468.71 46.3018V49.6618C468.71 50.5218 469.21 51.0218 470.04 51.0218C470.86 51.0218 471.36 50.5118 471.36 49.6318H472.15C472.15 50.9218 471.33 51.7318 470.04 51.7318ZM475.946 51.7218C474.666 51.7218 473.846 50.9118 473.846 49.5718V48.1918C473.846 46.8418 474.656 46.0418 475.946 46.0418C477.236 46.0418 478.046 46.8418 478.046 48.1918V49.5718C478.046 50.9118 477.236 51.7218 475.946 51.7218ZM475.946 51.0118C476.766 51.0118 477.256 50.5318 477.256 49.6418V48.1218C477.256 47.2318 476.756 46.7518 475.946 46.7518C475.136 46.7518 474.636 47.2318 474.636 48.1218V49.6418C474.636 50.5318 475.126 51.0118 475.946 51.0118ZM482.713 51.6318C481.763 51.6318 481.173 51.0518 481.173 50.1318V45.0518H479.293V44.3318H481.963V50.1318C481.963 50.6218 482.243 50.9118 482.713 50.9118H484.413V51.6318H482.713ZM488.709 51.6318C487.759 51.6318 487.169 51.0518 487.169 50.1318V45.0518H485.289V44.3318H487.959V50.1318C487.959 50.6218 488.239 50.9118 488.709 50.9118H490.409V51.6318H488.709ZM493.935 51.7318C492.655 51.7318 491.835 50.9118 491.835 49.5818V48.1818C491.835 46.8518 492.655 46.0318 493.935 46.0318C495.215 46.0318 496.035 46.8518 496.035 48.1018V49.0818H492.605V49.6618C492.605 50.5118 493.115 51.0418 493.935 51.0418C494.625 51.0418 495.115 50.7318 495.205 50.2418H495.995C495.865 51.1618 495.065 51.7318 493.935 51.7318ZM492.605 48.4518H495.265V48.1018C495.265 47.2118 494.775 46.6918 493.935 46.6918C493.095 46.6918 492.605 47.2118 492.605 48.1018V48.4518ZM500.011 51.7318C498.711 51.7318 497.871 50.9418 497.871 49.6618V48.1018C497.871 46.8218 498.721 46.0318 500.011 46.0318C501.271 46.0318 502.091 46.7618 502.121 47.9318H501.321C501.291 47.1818 500.801 46.7418 500.011 46.7418C499.191 46.7418 498.671 47.2418 498.671 48.1018V49.6618C498.671 50.5218 499.191 51.0218 500.011 51.0218C500.801 51.0218 501.291 50.5818 501.321 49.8318H502.121C502.091 51.0018 501.271 51.7318 500.011 51.7318ZM506.477 51.6318C505.587 51.6318 505.027 51.0918 505.027 50.2318V46.8518H503.437V46.1318H505.027V44.5818H505.827V46.1318H508.087V46.8518H505.827V50.2318C505.827 50.6518 506.077 50.9118 506.477 50.9118H508.037V51.6318H506.477ZM511.923 51.7218C510.643 51.7218 509.823 50.9118 509.823 49.5718V48.1918C509.823 46.8418 510.633 46.0418 511.923 46.0418C513.213 46.0418 514.023 46.8418 514.023 48.1918V49.5718C514.023 50.9118 513.213 51.7218 511.923 51.7218ZM511.923 51.0118C512.743 51.0118 513.233 50.5318 513.233 49.6418V48.1218C513.233 47.2318 512.733 46.7518 511.923 46.7518C511.113 46.7518 510.613 47.2318 510.613 48.1218V49.6418C510.613 50.5318 511.103 51.0118 511.923 51.0118ZM516.089 51.6318V46.1318H516.889V47.1518C517.009 46.4618 517.539 46.0318 518.369 46.0318C519.529 46.0318 520.159 46.7518 520.159 48.0018V48.4818H519.369V48.0018C519.369 47.1518 518.939 46.7218 518.139 46.7218C517.329 46.7218 516.889 47.2118 516.889 48.1018V51.6318H516.089Z" fill="#FFFEFE"/>
<path d="M472.15 46.3318V47.3318H473.15V46.3318H472.15ZM471.36 46.3318H470.36V47.3318H471.36V46.3318ZM471.36 49.6318V48.6318H470.36V49.6318H471.36ZM472.15 49.6318H473.15V48.6318H472.15V49.6318ZM470.04 51.7318V50.7318C469.586 50.7318 469.328 50.5984 469.188 50.4612C469.05 50.3268 468.92 50.0868 468.92 49.6618H467.92H466.92C466.92 50.5168 467.196 51.3119 467.791 51.8924C468.383 52.4703 469.184 52.7318 470.04 52.7318V51.7318ZM467.92 49.6618H468.92V46.3018H467.92H466.92V49.6618H467.92ZM467.92 46.3018H468.92C468.92 45.8768 469.05 45.6369 469.188 45.5024C469.328 45.3653 469.586 45.2318 470.04 45.2318V44.2318V43.2318C469.184 43.2318 468.383 43.4934 467.791 44.0712C467.196 44.6518 466.92 45.4468 466.92 46.3018H467.92ZM470.04 44.2318V45.2318C470.474 45.2318 470.73 45.3638 470.874 45.5076C471.018 45.6506 471.15 45.9024 471.15 46.3318H472.15H473.15C473.15 45.4713 472.872 44.6731 472.284 44.0886C471.696 43.5049 470.897 43.2318 470.04 43.2318V44.2318ZM472.15 46.3318V45.3318H471.36V46.3318V47.3318H472.15V46.3318ZM471.36 46.3318H472.36C472.36 45.7057 472.18 45.0848 471.73 44.6151C471.275 44.1401 470.661 43.9418 470.04 43.9418V44.9418V45.9418C470.239 45.9418 470.286 45.9985 470.286 45.9986C470.291 46.0039 470.36 46.0779 470.36 46.3318H471.36ZM470.04 44.9418V43.9418C469.424 43.9418 468.81 44.1319 468.351 44.598C467.895 45.0622 467.71 45.6795 467.71 46.3018H468.71H469.71C469.71 46.0641 469.776 46.0015 469.777 46.0007C469.781 45.996 469.794 45.9843 469.828 45.9717C469.865 45.9581 469.932 45.9418 470.04 45.9418V44.9418ZM468.71 46.3018H467.71V49.6618H468.71H469.71V46.3018H468.71ZM468.71 49.6618H467.71C467.71 50.2841 467.895 50.9015 468.351 51.3657C468.81 51.8318 469.424 52.0218 470.04 52.0218V51.0218V50.0218C469.932 50.0218 469.865 50.0055 469.828 49.992C469.794 49.9794 469.781 49.9676 469.777 49.963C469.776 49.9622 469.71 49.8995 469.71 49.6618H468.71ZM470.04 51.0218V52.0218C470.661 52.0218 471.275 51.8235 471.73 51.3486C472.18 50.8789 472.36 50.2579 472.36 49.6318H471.36H470.36C470.36 49.8857 470.291 49.9598 470.286 49.9651C470.286 49.9651 470.239 50.0218 470.04 50.0218V51.0218ZM471.36 49.6318V50.6318H472.15V49.6318V48.6318H471.36V49.6318ZM472.15 49.6318H471.15C471.15 50.0613 471.018 50.3131 470.874 50.4561C470.73 50.5999 470.474 50.7318 470.04 50.7318V51.7318V52.7318C470.897 52.7318 471.696 52.4588 472.284 51.8751C472.872 51.2906 473.15 50.4924 473.15 49.6318H472.15ZM475.946 51.7218V50.7218C475.521 50.7218 475.271 50.5916 475.128 50.4471C474.985 50.3014 474.846 50.0364 474.846 49.5718H473.846H472.846C472.846 50.4473 473.118 51.2573 473.705 51.8516C474.292 52.447 475.092 52.7218 475.946 52.7218V51.7218ZM473.846 49.5718H474.846V48.1918H473.846H472.846V49.5718H473.846ZM473.846 48.1918H474.846C474.846 47.7173 474.985 47.4543 475.125 47.3128C475.263 47.1726 475.51 47.0418 475.946 47.0418V46.0418V45.0418C475.092 45.0418 474.29 45.3111 473.701 45.9083C473.113 46.5044 472.846 47.3164 472.846 48.1918H473.846ZM475.946 46.0418V47.0418C476.382 47.0418 476.63 47.1726 476.768 47.3128C476.908 47.4543 477.046 47.7173 477.046 48.1918H478.046H479.046C479.046 47.3164 478.78 46.5044 478.192 45.9083C477.603 45.3111 476.8 45.0418 475.946 45.0418V46.0418ZM478.046 48.1918H477.046V49.5718H478.046H479.046V48.1918H478.046ZM478.046 49.5718H477.046C477.046 50.0397 476.909 50.3042 476.767 50.4483C476.627 50.5907 476.379 50.7218 475.946 50.7218V51.7218V52.7218C476.804 52.7218 477.606 52.448 478.193 51.8504C478.779 51.2545 479.046 50.444 479.046 49.5718H478.046ZM475.946 51.0118V52.0118C476.551 52.0118 477.166 51.8308 477.626 51.3579C478.082 50.8886 478.256 50.2655 478.256 49.6418H477.256H476.256C476.256 49.7742 476.238 49.8579 476.222 49.905C476.207 49.9492 476.193 49.9624 476.192 49.9632C476.192 49.9637 476.184 49.9726 476.154 49.9836C476.121 49.9958 476.055 50.0118 475.946 50.0118V51.0118ZM477.256 49.6418H478.256V48.1218H477.256H476.256V49.6418H477.256ZM477.256 48.1218H478.256C478.256 47.4929 478.077 46.8708 477.62 46.4037C477.161 45.9344 476.549 45.7518 475.946 45.7518V46.7518V47.7518C476.051 47.7518 476.115 47.7675 476.149 47.7797C476.179 47.7909 476.188 47.8005 476.19 47.8024C476.193 47.8046 476.206 47.8188 476.222 47.8625C476.238 47.909 476.256 47.9916 476.256 48.1218H477.256ZM475.946 46.7518V45.7518C475.344 45.7518 474.732 45.9344 474.273 46.4037C473.816 46.8708 473.636 47.4929 473.636 48.1218H474.636H475.636C475.636 47.9916 475.655 47.909 475.671 47.8625C475.686 47.8188 475.7 47.8046 475.702 47.8024C475.704 47.8005 475.713 47.7909 475.744 47.7797C475.777 47.7675 475.842 47.7518 475.946 47.7518V46.7518ZM474.636 48.1218H473.636V49.6418H474.636H475.636V48.1218H474.636ZM474.636 49.6418H473.636C473.636 50.2655 473.811 50.8886 474.267 51.3579C474.727 51.8308 475.342 52.0118 475.946 52.0118V51.0118V50.0118C475.838 50.0118 475.772 49.9958 475.739 49.9836C475.709 49.9726 475.701 49.9637 475.701 49.9632C475.7 49.9624 475.686 49.9492 475.671 49.905C475.655 49.8579 475.636 49.7742 475.636 49.6418H474.636ZM481.173 45.0518H482.173V44.0518H481.173V45.0518ZM479.293 45.0518H478.293V46.0518H479.293V45.0518ZM479.293 44.3318V43.3318H478.293V44.3318H479.293ZM481.963 44.3318H482.963V43.3318H481.963V44.3318ZM484.413 50.9118H485.413V49.9118H484.413V50.9118ZM484.413 51.6318V52.6318H485.413V51.6318H484.413ZM482.713 51.6318V50.6318C482.442 50.6318 482.327 50.5528 482.285 50.5114C482.245 50.4725 482.173 50.3735 482.173 50.1318H481.173H480.173C480.173 50.8101 480.395 51.4612 480.888 51.9423C481.378 52.4209 482.033 52.6318 482.713 52.6318V51.6318ZM481.173 50.1318H482.173V45.0518H481.173H480.173V50.1318H481.173ZM481.173 45.0518V44.0518H479.293V45.0518V46.0518H481.173V45.0518ZM479.293 45.0518H480.293V44.3318H479.293H478.293V45.0518H479.293ZM479.293 44.3318V45.3318H481.963V44.3318V43.3318H479.293V44.3318ZM481.963 44.3318H480.963V50.1318H481.963H482.963V44.3318H481.963ZM481.963 50.1318H480.963C480.963 50.5642 481.089 51.0333 481.441 51.3991C481.798 51.7698 482.269 51.9118 482.713 51.9118V50.9118V49.9118C482.697 49.9118 482.714 49.9095 482.75 49.9233C482.789 49.938 482.838 49.9663 482.882 50.0121C482.976 50.1103 482.963 50.1895 482.963 50.1318H481.963ZM482.713 50.9118V51.9118H484.413V50.9118V49.9118H482.713V50.9118ZM484.413 50.9118H483.413V51.6318H484.413H485.413V50.9118H484.413ZM484.413 51.6318V50.6318H482.713V51.6318V52.6318H484.413V51.6318ZM487.169 45.0518H488.169V44.0518H487.169V45.0518ZM485.289 45.0518H484.289V46.0518H485.289V45.0518ZM485.289 44.3318V43.3318H484.289V44.3318H485.289ZM487.959 44.3318H488.959V43.3318H487.959V44.3318ZM490.409 50.9118H491.409V49.9118H490.409V50.9118ZM490.409 51.6318V52.6318H491.409V51.6318H490.409ZM488.709 51.6318V50.6318C488.438 50.6318 488.323 50.5528 488.281 50.5114C488.241 50.4725 488.169 50.3735 488.169 50.1318H487.169H486.169C486.169 50.8101 486.391 51.4612 486.884 51.9423C487.374 52.4209 488.029 52.6318 488.709 52.6318V51.6318ZM487.169 50.1318H488.169V45.0518H487.169H486.169V50.1318H487.169ZM487.169 45.0518V44.0518H485.289V45.0518V46.0518H487.169V45.0518ZM485.289 45.0518H486.289V44.3318H485.289H484.289V45.0518H485.289ZM485.289 44.3318V45.3318H487.959V44.3318V43.3318H485.289V44.3318ZM487.959 44.3318H486.959V50.1318H487.959H488.959V44.3318H487.959ZM487.959 50.1318H486.959C486.959 50.5642 487.085 51.0333 487.437 51.3991C487.794 51.7698 488.265 51.9118 488.709 51.9118V50.9118V49.9118C488.693 49.9118 488.71 49.9095 488.746 49.9233C488.785 49.938 488.834 49.9663 488.878 50.0121C488.972 50.1103 488.959 50.1895 488.959 50.1318H487.959ZM488.709 50.9118V51.9118H490.409V50.9118V49.9118H488.709V50.9118ZM490.409 50.9118H489.409V51.6318H490.409H491.409V50.9118H490.409ZM490.409 51.6318V50.6318H488.709V51.6318V52.6318H490.409V51.6318ZM496.035 49.0818V50.0818H497.035V49.0818H496.035ZM492.605 49.0818V48.0818H491.605V49.0818H492.605ZM495.205 50.2418V49.2418H494.372L494.221 50.0612L495.205 50.2418ZM495.995 50.2418L496.985 50.3818L497.146 49.2418H495.995V50.2418ZM492.605 48.4518H491.605V49.4518H492.605V48.4518ZM495.265 48.4518V49.4518H496.265V48.4518H495.265ZM493.935 51.7318V50.7318C493.512 50.7318 493.262 50.6012 493.118 50.4545C492.972 50.3062 492.835 50.0397 492.835 49.5818H491.835H490.835C490.835 50.454 491.107 51.2624 491.692 51.8567C492.277 52.4524 493.077 52.7318 493.935 52.7318V51.7318ZM491.835 49.5818H492.835V48.1818H491.835H490.835V49.5818H491.835ZM491.835 48.1818H492.835C492.835 47.724 492.972 47.4574 493.118 47.3092C493.262 47.1624 493.512 47.0318 493.935 47.0318V46.0318V45.0318C493.077 45.0318 492.277 45.3112 491.692 45.907C491.107 46.5012 490.835 47.3097 490.835 48.1818H491.835ZM493.935 46.0318V47.0318C494.358 47.0318 494.614 47.1632 494.761 47.3088C494.908 47.4537 495.035 47.7003 495.035 48.1018H496.035H497.035C497.035 47.2534 496.752 46.465 496.168 45.8873C495.585 45.3105 494.792 45.0318 493.935 45.0318V46.0318ZM496.035 48.1018H495.035V49.0818H496.035H497.035V48.1018H496.035ZM496.035 49.0818V48.0818H492.605V49.0818V50.0818H496.035V49.0818ZM492.605 49.0818H491.605V49.6618H492.605H493.605V49.0818H492.605ZM492.605 49.6618H491.605C491.605 50.2863 491.795 50.9005 492.242 51.3644C492.693 51.8325 493.304 52.0418 493.935 52.0418V51.0418V50.0418C493.746 50.0418 493.691 49.9862 493.682 49.9768C493.669 49.9631 493.605 49.8874 493.605 49.6618H492.605ZM493.935 51.0418V52.0418C494.861 52.0418 495.973 51.5938 496.188 50.4225L495.205 50.2418L494.221 50.0612C494.225 50.0403 494.235 50.016 494.249 49.9956C494.263 49.9766 494.271 49.9734 494.261 49.9798C494.237 49.9952 494.138 50.0418 493.935 50.0418V51.0418ZM495.205 50.2418V51.2418H495.995V50.2418V49.2418H495.205V50.2418ZM495.995 50.2418L495.005 50.1019C494.966 50.378 494.735 50.7318 493.935 50.7318V51.7318V52.7318C495.394 52.7318 496.764 51.9457 496.985 50.3818L495.995 50.2418ZM492.605 48.4518V49.4518H495.265V48.4518V47.4518H492.605V48.4518ZM495.265 48.4518H496.265V48.1018H495.265H494.265V48.4518H495.265ZM495.265 48.1018H496.265C496.265 47.479 496.091 46.8533 495.642 46.377C495.186 45.8927 494.565 45.6918 493.935 45.6918V46.6918V47.6918C494.042 47.6918 494.107 47.7085 494.14 47.7212C494.171 47.7328 494.182 47.7435 494.187 47.7492C494.193 47.7554 494.265 47.8347 494.265 48.1018H495.265ZM493.935 46.6918V45.6918C493.304 45.6918 492.684 45.8927 492.227 46.377C491.778 46.8533 491.605 47.479 491.605 48.1018H492.605H493.605C493.605 47.8347 493.676 47.7554 493.682 47.7492C493.688 47.7435 493.699 47.7328 493.729 47.7212C493.763 47.7085 493.827 47.6918 493.935 47.6918V46.6918ZM492.605 48.1018H491.605V48.4518H492.605H493.605V48.1018H492.605ZM502.121 47.9318V48.9318H503.147L503.12 47.9062L502.121 47.9318ZM501.321 47.9318L500.322 47.9718L500.36 48.9318H501.321V47.9318ZM501.321 49.8318V48.8318H500.36L500.322 49.7919L501.321 49.8318ZM502.121 49.8318L503.12 49.8575L503.147 48.8318H502.121V49.8318ZM500.011 51.7318V50.7318C499.563 50.7318 499.295 50.5988 499.146 50.4554C499.001 50.3166 498.871 50.0763 498.871 49.6618H497.871H496.871C496.871 50.5273 497.16 51.3221 497.761 51.8983C498.356 52.4698 499.159 52.7318 500.011 52.7318V51.7318ZM497.871 49.6618H498.871V48.1018H497.871H496.871V49.6618H497.871ZM497.871 48.1018H498.871C498.871 47.6907 499.001 47.4499 499.148 47.3095C499.3 47.1639 499.57 47.0318 500.011 47.0318V46.0318V45.0318C499.162 45.0318 498.361 45.2947 497.766 45.8642C497.165 46.4388 496.871 47.2329 496.871 48.1018H497.871ZM500.011 46.0318V47.0318C500.45 47.0318 500.714 47.1571 500.859 47.2873C500.995 47.4095 501.112 47.6113 501.121 47.9575L502.121 47.9318L503.12 47.9062C503.099 47.0823 502.791 46.3342 502.195 45.7989C501.608 45.2715 500.831 45.0318 500.011 45.0318V46.0318ZM502.121 47.9318V46.9318H501.321V47.9318V48.9318H502.121V47.9318ZM501.321 47.9318L502.32 47.8919C502.296 47.3008 502.082 46.7307 501.622 46.3143C501.17 45.9047 500.588 45.7418 500.011 45.7418V46.7418V47.7418C500.116 47.7418 500.186 47.7566 500.226 47.7701C500.264 47.7831 500.278 47.7951 500.28 47.7968C500.281 47.798 500.287 47.8027 500.295 47.8214C500.303 47.8422 500.318 47.8888 500.322 47.9718L501.321 47.9318ZM500.011 46.7418V45.7418C499.397 45.7418 498.785 45.933 498.326 46.3922C497.866 46.8521 497.671 47.4688 497.671 48.1018H498.671H499.671C499.671 47.8748 499.735 47.8116 499.74 47.8064C499.746 47.8007 499.805 47.7418 500.011 47.7418V46.7418ZM498.671 48.1018H497.671V49.6618H498.671H499.671V48.1018H498.671ZM498.671 49.6618H497.671C497.671 50.2948 497.866 50.9116 498.326 51.3714C498.785 51.8307 499.397 52.0218 500.011 52.0218V51.0218V50.0218C499.805 50.0218 499.746 49.963 499.74 49.9572C499.735 49.9521 499.671 49.8888 499.671 49.6618H498.671ZM500.011 51.0218V52.0218C500.588 52.0218 501.17 51.859 501.622 51.4493C502.082 51.033 502.296 50.4628 502.32 49.8718L501.321 49.8318L500.322 49.7919C500.318 49.8749 500.303 49.9215 500.295 49.9423C500.287 49.961 500.281 49.9657 500.28 49.9668C500.278 49.9686 500.264 49.9806 500.226 49.9935C500.186 50.007 500.116 50.0218 500.011 50.0218V51.0218ZM501.321 49.8318V50.8318H502.121V49.8318V48.8318H501.321V49.8318ZM502.121 49.8318L501.121 49.8062C501.112 50.1523 500.995 50.3542 500.859 50.4764C500.714 50.6065 500.45 50.7318 500.011 50.7318V51.7318V52.7318C500.831 52.7318 501.608 52.4921 502.195 51.9648C502.791 51.4295 503.099 50.6813 503.12 49.8575L502.121 49.8318ZM505.027 46.8518H506.027V45.8518H505.027V46.8518ZM503.437 46.8518H502.437V47.8518H503.437V46.8518ZM503.437 46.1318V45.1318H502.437V46.1318H503.437ZM505.027 46.1318V47.1318H506.027V46.1318H505.027ZM505.027 44.5818V43.5818H504.027V44.5818H505.027ZM505.827 44.5818H506.827V43.5818H505.827V44.5818ZM505.827 46.1318H504.827V47.1318H505.827V46.1318ZM508.087 46.1318H509.087V45.1318H508.087V46.1318ZM508.087 46.8518V47.8518H509.087V46.8518H508.087ZM505.827 46.8518V45.8518H504.827V46.8518H505.827ZM508.037 50.9118H509.037V49.9118H508.037V50.9118ZM508.037 51.6318V52.6318H509.037V51.6318H508.037ZM506.477 51.6318V50.6318C506.234 50.6318 506.14 50.5615 506.113 50.5348C506.089 50.512 506.027 50.439 506.027 50.2318H505.027H504.027C504.027 50.8847 504.245 51.5117 504.724 51.9739C505.199 52.4322 505.83 52.6318 506.477 52.6318V51.6318ZM505.027 50.2318H506.027V46.8518H505.027H504.027V50.2318H505.027ZM505.027 46.8518V45.8518H503.437V46.8518V47.8518H505.027V46.8518ZM503.437 46.8518H504.437V46.1318H503.437H502.437V46.8518H503.437ZM503.437 46.1318V47.1318H505.027V46.1318V45.1318H503.437V46.1318ZM505.027 46.1318H506.027V44.5818H505.027H504.027V46.1318H505.027ZM505.027 44.5818V45.5818H505.827V44.5818V43.5818H505.027V44.5818ZM505.827 44.5818H504.827V46.1318H505.827H506.827V44.5818H505.827ZM505.827 46.1318V47.1318H508.087V46.1318V45.1318H505.827V46.1318ZM508.087 46.1318H507.087V46.8518H508.087H509.087V46.1318H508.087ZM508.087 46.8518V45.8518H505.827V46.8518V47.8518H508.087V46.8518ZM505.827 46.8518H504.827V50.2318H505.827H506.827V46.8518H505.827ZM505.827 50.2318H504.827C504.827 50.6392 504.951 51.0778 505.28 51.4209C505.613 51.7689 506.054 51.9118 506.477 51.9118V50.9118V49.9118C506.5 49.9118 506.616 49.9248 506.724 50.0378C506.828 50.1458 506.827 50.2445 506.827 50.2318H505.827ZM506.477 50.9118V51.9118H508.037V50.9118V49.9118H506.477V50.9118ZM508.037 50.9118H507.037V51.6318H508.037H509.037V50.9118H508.037ZM508.037 51.6318V50.6318H506.477V51.6318V52.6318H508.037V51.6318ZM511.923 51.7218V50.7218C511.497 50.7218 511.248 50.5916 511.105 50.4471C510.961 50.3014 510.823 50.0364 510.823 49.5718H509.823H508.823C508.823 50.4473 509.095 51.2573 509.681 51.8516C510.268 52.447 511.069 52.7218 511.923 52.7218V51.7218ZM509.823 49.5718H510.823V48.1918H509.823H508.823V49.5718H509.823ZM509.823 48.1918H510.823C510.823 47.7173 510.962 47.4543 511.101 47.3128C511.24 47.1726 511.487 47.0418 511.923 47.0418V46.0418V45.0418C511.069 45.0418 510.266 45.3111 509.677 45.9083C509.089 46.5044 508.823 47.3164 508.823 48.1918H509.823ZM511.923 46.0418V47.0418C512.359 47.0418 512.606 47.1726 512.745 47.3128C512.884 47.4543 513.023 47.7173 513.023 48.1918H514.023H515.023C515.023 47.3164 514.757 46.5044 514.169 45.9083C513.58 45.3111 512.777 45.0418 511.923 45.0418V46.0418ZM514.023 48.1918H513.023V49.5718H514.023H515.023V48.1918H514.023ZM514.023 49.5718H513.023C513.023 50.0397 512.885 50.3042 512.744 50.4483C512.604 50.5907 512.356 50.7218 511.923 50.7218V51.7218V52.7218C512.78 52.7218 513.582 52.448 514.17 51.8504C514.756 51.2545 515.023 50.444 515.023 49.5718H514.023ZM511.923 51.0118V52.0118C512.527 52.0118 513.142 51.8308 513.602 51.3579C514.059 50.8886 514.233 50.2655 514.233 49.6418H513.233H512.233C512.233 49.7742 512.215 49.8579 512.198 49.905C512.183 49.9492 512.17 49.9624 512.169 49.9632C512.168 49.9637 512.161 49.9726 512.13 49.9836C512.097 49.9958 512.032 50.0118 511.923 50.0118V51.0118ZM513.233 49.6418H514.233V48.1218H513.233H512.233V49.6418H513.233ZM513.233 48.1218H514.233C514.233 47.4929 514.053 46.8708 513.597 46.4037C513.137 45.9344 512.525 45.7518 511.923 45.7518V46.7518V47.7518C512.028 47.7518 512.092 47.7675 512.125 47.7797C512.156 47.7909 512.165 47.8005 512.167 47.8024C512.169 47.8046 512.183 47.8188 512.198 47.8625C512.215 47.909 512.233 47.9916 512.233 48.1218H513.233ZM511.923 46.7518V45.7518C511.321 45.7518 510.709 45.9344 510.249 46.4037C509.793 46.8708 509.613 47.4929 509.613 48.1218H510.613H511.613C511.613 47.9916 511.631 47.909 511.648 47.8625C511.663 47.8188 511.677 47.8046 511.679 47.8024C511.681 47.8005 511.69 47.7909 511.721 47.7797C511.754 47.7675 511.818 47.7518 511.923 47.7518V46.7518ZM510.613 48.1218H509.613V49.6418H510.613H511.613V48.1218H510.613ZM510.613 49.6418H509.613C509.613 50.2655 509.787 50.8886 510.244 51.3579C510.704 51.8308 511.319 52.0118 511.923 52.0118V51.0118V50.0118C511.814 50.0118 511.749 49.9958 511.715 49.9836C511.685 49.9726 511.678 49.9637 511.677 49.9632C511.676 49.9624 511.663 49.9492 511.648 49.905C511.631 49.8579 511.613 49.7742 511.613 49.6418H510.613ZM516.089 51.6318H515.089V52.6318H516.089V51.6318ZM516.089 46.1318V45.1318H515.089V46.1318H516.089ZM516.889 46.1318H517.889V45.1318H516.889V46.1318ZM516.889 47.1518H515.889L517.874 47.3232L516.889 47.1518ZM520.159 48.4818V49.4818H521.159V48.4818H520.159ZM519.369 48.4818H518.369V49.4818H519.369V48.4818ZM516.889 51.6318V52.6318H517.889V51.6318H516.889ZM516.089 51.6318H517.089V46.1318H516.089H515.089V51.6318H516.089ZM516.089 46.1318V47.1318H516.889V46.1318V45.1318H516.089V46.1318ZM516.889 46.1318H515.889V47.1518H516.889H517.889V46.1318H516.889ZM516.889 47.1518L517.874 47.3232C517.896 47.1984 517.94 47.1505 517.973 47.125C518.014 47.0937 518.125 47.0318 518.369 47.0318V46.0318V45.0318C517.783 45.0318 517.214 45.185 516.752 45.5412C516.283 45.9032 516.002 46.4153 515.904 46.9805L516.889 47.1518ZM518.369 46.0318V47.0318C518.736 47.0318 518.885 47.1385 518.956 47.2169C519.041 47.3117 519.159 47.533 519.159 48.0018H520.159H521.159C521.159 47.2207 520.962 46.457 520.443 45.8793C519.908 45.2851 519.162 45.0318 518.369 45.0318V46.0318ZM520.159 48.0018H519.159V48.4818H520.159H521.159V48.0018H520.159ZM520.159 48.4818V47.4818H519.369V48.4818V49.4818H520.159V48.4818ZM519.369 48.4818H520.369V48.0018H519.369H518.369V48.4818H519.369ZM519.369 48.0018H520.369C520.369 47.4197 520.221 46.8096 519.772 46.3465C519.317 45.8785 518.712 45.7218 518.139 45.7218V46.7218V47.7218C518.366 47.7218 518.376 47.7802 518.337 47.7396C518.302 47.7041 518.369 47.734 518.369 48.0018H519.369ZM518.139 46.7218V45.7218C517.528 45.7218 516.915 45.9132 516.468 46.4076C516.036 46.8857 515.889 47.5051 515.889 48.1018H516.889H517.889C517.889 47.8086 517.962 47.7379 517.952 47.7486C517.948 47.7535 517.946 47.7516 517.962 47.7453C517.982 47.7375 518.036 47.7218 518.139 47.7218V46.7218ZM516.889 48.1018H515.889V51.6318H516.889H517.889V48.1018H516.889ZM516.889 51.6318V50.6318H516.089V51.6318V52.6318H516.889V51.6318Z" fill="white" mask="url(#path-6-inside-1_805_4)"/>
<path d="M232.108 52.3769C230.798 52.3769 229.988 51.5869 229.988 50.3069V46.9469C229.988 45.6669 230.798 44.8769 232.108 44.8769C233.398 44.8769 234.218 45.6869 234.218 46.9769H233.428C233.428 46.0969 232.928 45.5869 232.108 45.5869C231.278 45.5869 230.778 46.0869 230.778 46.9469V50.3069C230.778 51.1669 231.278 51.6669 232.108 51.6669C232.928 51.6669 233.428 51.1569 233.428 50.2769H234.218C234.218 51.5669 233.398 52.3769 232.108 52.3769ZM238.014 52.3669C236.734 52.3669 235.914 51.5569 235.914 50.2169V48.8369C235.914 47.4869 236.724 46.6869 238.014 46.6869C239.304 46.6869 240.114 47.4869 240.114 48.8369V50.2169C240.114 51.5569 239.304 52.3669 238.014 52.3669ZM238.014 51.6569C238.834 51.6569 239.324 51.1769 239.324 50.2869V48.7669C239.324 47.8769 238.824 47.3969 238.014 47.3969C237.204 47.3969 236.704 47.8769 236.704 48.7669V50.2869C236.704 51.1769 237.194 51.6569 238.014 51.6569ZM244.78 52.2769C243.83 52.2769 243.24 51.6969 243.24 50.7769V45.6969H241.36V44.9769H244.03V50.7769C244.03 51.2669 244.31 51.5569 244.78 51.5569H246.48V52.2769H244.78ZM250.776 52.2769C249.826 52.2769 249.236 51.6969 249.236 50.7769V45.6969H247.356V44.9769H250.026V50.7769C250.026 51.2669 250.306 51.5569 250.776 51.5569H252.476V52.2769H250.776ZM256.002 52.3769C254.722 52.3769 253.902 51.5569 253.902 50.2269V48.8269C253.902 47.4969 254.722 46.6769 256.002 46.6769C257.282 46.6769 258.102 47.4969 258.102 48.7469V49.7269H254.672V50.3069C254.672 51.1569 255.182 51.6869 256.002 51.6869C256.692 51.6869 257.182 51.3769 257.272 50.8869H258.062C257.932 51.8069 257.132 52.3769 256.002 52.3769ZM254.672 49.0969H257.332V48.7469C257.332 47.8569 256.842 47.3369 256.002 47.3369C255.162 47.3369 254.672 47.8569 254.672 48.7469V49.0969ZM262.078 52.3769C260.778 52.3769 259.938 51.5869 259.938 50.3069V48.7469C259.938 47.4669 260.788 46.6769 262.078 46.6769C263.338 46.6769 264.158 47.4069 264.188 48.5769H263.388C263.358 47.8269 262.868 47.3869 262.078 47.3869C261.258 47.3869 260.738 47.8869 260.738 48.7469V50.3069C260.738 51.1669 261.258 51.6669 262.078 51.6669C262.868 51.6669 263.358 51.2269 263.388 50.4769H264.188C264.158 51.6469 263.338 52.3769 262.078 52.3769ZM268.544 52.2769C267.654 52.2769 267.094 51.7369 267.094 50.8769V47.4969H265.504V46.7769H267.094V45.2269H267.894V46.7769H270.154V47.4969H267.894V50.8769C267.894 51.2969 268.144 51.5569 268.544 51.5569H270.104V52.2769H268.544ZM273.99 52.3669C272.71 52.3669 271.89 51.5569 271.89 50.2169V48.8369C271.89 47.4869 272.7 46.6869 273.99 46.6869C275.28 46.6869 276.09 47.4869 276.09 48.8369V50.2169C276.09 51.5569 275.28 52.3669 273.99 52.3669ZM273.99 51.6569C274.81 51.6569 275.3 51.1769 275.3 50.2869V48.7669C275.3 47.8769 274.8 47.3969 273.99 47.3969C273.18 47.3969 272.68 47.8769 272.68 48.7669V50.2869C272.68 51.1769 273.17 51.6569 273.99 51.6569ZM278.156 52.2769V46.7769H278.956V47.7969C279.076 47.1069 279.606 46.6769 280.436 46.6769C281.596 46.6769 282.226 47.3969 282.226 48.6469V49.1269H281.436V48.6469C281.436 47.7969 281.006 47.3669 280.206 47.3669C279.396 47.3669 278.956 47.8569 278.956 48.7469V52.2769H278.156Z" fill="white"/>
<rect x="14" y="32.658" width="147" height="34.5537" rx="12" fill="#8053FF"/>
<path d="M67.9964 54.1759V46.8759H72.1164V47.5959H68.7864V50.0059H71.7664V50.7159H68.7864V53.4559H72.1164V54.1759H67.9964ZM73.5825 54.1759V48.6759H74.2725V49.4159H74.2925C74.3525 48.9059 74.7125 48.5759 75.2225 48.5759C75.7125 48.5759 76.0725 48.8859 76.2025 49.3759H76.2125C76.2925 48.8759 76.6425 48.5759 77.1625 48.5759C77.8525 48.5759 78.3025 49.1359 78.3025 49.9659V54.1759H77.5525V49.9659C77.5525 49.4959 77.3125 49.1959 76.9125 49.1959C76.5225 49.1959 76.2825 49.4859 76.2825 49.9659V54.1759H75.6025V49.9659C75.6025 49.4959 75.3625 49.1959 74.9725 49.1959C74.5825 49.1959 74.3325 49.4859 74.3325 49.9659V54.1759H73.5825ZM82.0886 47.6659C81.6686 47.6659 81.4086 47.4359 81.4086 47.0659C81.4086 46.6759 81.6686 46.4359 82.0886 46.4359C82.5086 46.4359 82.7686 46.6759 82.7686 47.0659C82.7686 47.4359 82.5086 47.6659 82.0886 47.6659ZM79.8186 54.1759V53.4559H81.7786V49.3959H80.0286V48.6759H82.5786V53.4559H84.4386V54.1759H79.8186ZM88.4847 54.1759C87.5947 54.1759 87.0347 53.6359 87.0347 52.7759V49.3959H85.4447V48.6759H87.0347V47.1259H87.8347V48.6759H90.0947V49.3959H87.8347V52.7759C87.8347 53.1959 88.0847 53.4559 88.4847 53.4559H90.0447V54.1759H88.4847ZM94.4808 54.1759C93.5908 54.1759 93.0308 53.6359 93.0308 52.7759V49.3959H91.4408V48.6759H93.0308V47.1259H93.8308V48.6759H96.0908V49.3959H93.8308V52.7759C93.8308 53.1959 94.0808 53.4559 94.4808 53.4559H96.0408V54.1759H94.4808ZM99.9269 54.2759C98.6469 54.2759 97.8269 53.4559 97.8269 52.1259V50.7259C97.8269 49.3959 98.6469 48.5759 99.9269 48.5759C101.207 48.5759 102.027 49.3959 102.027 50.6459V51.6259H98.5969V52.2059C98.5969 53.0559 99.1069 53.5859 99.9269 53.5859C100.617 53.5859 101.107 53.2759 101.197 52.7859H101.987C101.857 53.7059 101.057 54.2759 99.9269 54.2759ZM98.5969 50.9959H101.257V50.6459C101.257 49.7559 100.767 49.2359 99.9269 49.2359C99.0869 49.2359 98.5969 49.7559 98.5969 50.6459V50.9959ZM104.093 54.1759V48.6759H104.893V49.6959C105.013 49.0059 105.543 48.5759 106.373 48.5759C107.533 48.5759 108.163 49.2959 108.163 50.5459V51.0259H107.373V50.5459C107.373 49.6959 106.943 49.2659 106.143 49.2659C105.333 49.2659 104.893 49.7559 104.893 50.6459V54.1759H104.093Z" fill="white"/>
<path d="M307.064 52.2769V44.9769H311.184V45.6969H307.854V48.1069H310.834V48.8169H307.854V51.5569H311.184V52.2769H307.064ZM312.65 52.2769V46.7769H313.34V47.5169H313.36C313.42 47.0069 313.78 46.6769 314.29 46.6769C314.78 46.6769 315.14 46.9869 315.27 47.4769H315.28C315.36 46.9769 315.71 46.6769 316.23 46.6769C316.92 46.6769 317.37 47.2369 317.37 48.0669V52.2769H316.62V48.0669C316.62 47.5969 316.38 47.2969 315.98 47.2969C315.59 47.2969 315.35 47.5869 315.35 48.0669V52.2769H314.67V48.0669C314.67 47.5969 314.43 47.2969 314.04 47.2969C313.65 47.2969 313.4 47.5869 313.4 48.0669V52.2769H312.65ZM321.156 45.7669C320.736 45.7669 320.476 45.5369 320.476 45.1669C320.476 44.7769 320.736 44.5369 321.156 44.5369C321.576 44.5369 321.836 44.7769 321.836 45.1669C321.836 45.5369 321.576 45.7669 321.156 45.7669ZM318.886 52.2769V51.5569H320.846V47.4969H319.096V46.7769H321.646V51.5569H323.506V52.2769H318.886ZM327.552 52.2769C326.662 52.2769 326.102 51.7369 326.102 50.8769V47.4969H324.512V46.7769H326.102V45.2269H326.902V46.7769H329.162V47.4969H326.902V50.8769C326.902 51.2969 327.152 51.5569 327.552 51.5569H329.112V52.2769H327.552ZM333.548 52.2769C332.658 52.2769 332.098 51.7369 332.098 50.8769V47.4969H330.508V46.7769H332.098V45.2269H332.898V46.7769H335.158V47.4969H332.898V50.8769C332.898 51.2969 333.148 51.5569 333.548 51.5569H335.108V52.2769H333.548ZM338.994 52.3769C337.714 52.3769 336.894 51.5569 336.894 50.2269V48.8269C336.894 47.4969 337.714 46.6769 338.994 46.6769C340.274 46.6769 341.094 47.4969 341.094 48.7469V49.7269H337.664V50.3069C337.664 51.1569 338.174 51.6869 338.994 51.6869C339.684 51.6869 340.174 51.3769 340.264 50.8869H341.054C340.924 51.8069 340.124 52.3769 338.994 52.3769ZM337.664 49.0969H340.324V48.7469C340.324 47.8569 339.834 47.3369 338.994 47.3369C338.154 47.3369 337.664 47.8569 337.664 48.7469V49.0969ZM343.16 52.2769V46.7769H343.96V47.7969C344.08 47.1069 344.61 46.6769 345.44 46.6769C346.6 46.6769 347.23 47.3969 347.23 48.6469V49.1269H346.44V48.6469C346.44 47.7969 346.01 47.3669 345.21 47.3669C344.4 47.3669 343.96 47.8569 343.96 48.7469V52.2769H343.16Z" fill="white"/>
<path d="M230.064 24V23.28H231.574V17.42H230.064V16.7H233.884V17.42H232.384V23.28H233.884V24H230.064ZM235.94 24V18.5H236.73V19.52C236.85 18.81 237.39 18.4 238.22 18.4C239.31 18.4 240.02 19.14 240.02 20.31V24H239.23V20.44C239.23 19.56 238.76 19.07 238 19.07C237.22 19.07 236.73 19.59 236.73 20.47V24H235.94ZM244.516 24C243.626 24 243.066 23.46 243.066 22.6V19.22H241.476V18.5H243.066V16.95H243.866V18.5H246.126V19.22H243.866V22.6C243.866 23.02 244.116 23.28 244.516 23.28H246.076V24H244.516ZM249.962 24.1C248.682 24.1 247.862 23.28 247.862 21.95V20.55C247.862 19.22 248.682 18.4 249.962 18.4C251.242 18.4 252.062 19.22 252.062 20.47V21.45H248.632V22.03C248.632 22.88 249.142 23.41 249.962 23.41C250.652 23.41 251.142 23.1 251.232 22.61H252.022C251.892 23.53 251.092 24.1 249.962 24.1ZM248.632 20.82H251.292V20.47C251.292 19.58 250.802 19.06 249.962 19.06C249.122 19.06 248.632 19.58 248.632 20.47V20.82ZM254.128 24V18.5H254.928V19.52C255.048 18.83 255.578 18.4 256.408 18.4C257.568 18.4 258.198 19.12 258.198 20.37V20.85H257.408V20.37C257.408 19.52 256.978 19.09 256.178 19.09C255.368 19.09 254.928 19.58 254.928 20.47V24H254.128ZM259.594 24V18.5H260.284V19.24H260.304C260.364 18.73 260.724 18.4 261.234 18.4C261.724 18.4 262.084 18.71 262.214 19.2H262.224C262.304 18.7 262.654 18.4 263.174 18.4C263.864 18.4 264.314 18.96 264.314 19.79V24H263.564V19.79C263.564 19.32 263.324 19.02 262.924 19.02C262.534 19.02 262.294 19.31 262.294 19.79V24H261.614V19.79C261.614 19.32 261.374 19.02 260.984 19.02C260.594 19.02 260.344 19.31 260.344 19.79V24H259.594ZM267.95 24.1C266.67 24.1 265.85 23.28 265.85 21.95V20.55C265.85 19.22 266.67 18.4 267.95 18.4C269.23 18.4 270.05 19.22 270.05 20.47V21.45H266.62V22.03C266.62 22.88 267.13 23.41 267.95 23.41C268.64 23.41 269.13 23.1 269.22 22.61H270.01C269.88 23.53 269.08 24.1 267.95 24.1ZM266.62 20.82H269.28V20.47C269.28 19.58 268.79 19.06 267.95 19.06C267.11 19.06 266.62 19.58 266.62 20.47V20.82ZM273.676 24.1C272.576 24.1 271.866 23.32 271.866 22.07V20.44C271.866 19.19 272.566 18.4 273.676 18.4C274.486 18.4 275.066 18.82 275.196 19.5L275.186 18.27V16.7H275.976V24H275.186V23C275.056 23.68 274.486 24.1 273.676 24.1ZM273.926 23.41C274.706 23.41 275.186 22.9 275.186 22.03V20.47C275.186 19.6 274.706 19.09 273.926 19.09C273.126 19.09 272.656 19.52 272.656 20.44V22.07C272.656 22.99 273.126 23.41 273.926 23.41ZM280.093 17.49C279.673 17.49 279.413 17.26 279.413 16.89C279.413 16.5 279.673 16.26 280.093 16.26C280.513 16.26 280.773 16.5 280.773 16.89C280.773 17.26 280.513 17.49 280.093 17.49ZM277.823 24V23.28H279.783V19.22H278.033V18.5H280.583V23.28H282.443V24H277.823ZM285.499 24.1C284.359 24.1 283.659 23.41 283.659 22.39C283.659 21.4 284.379 20.71 285.429 20.71H287.179V20.25C287.179 19.48 286.769 19.09 285.959 19.09C285.219 19.09 284.739 19.4 284.709 19.9H283.919C283.979 19.03 284.749 18.4 285.959 18.4C287.249 18.4 287.969 19.07 287.969 20.23V24H287.189V22.97H287.179C287.069 23.66 286.439 24.1 285.499 24.1ZM285.699 23.42C286.599 23.42 287.179 22.94 287.179 22.17V21.34H285.499C284.879 21.34 284.459 21.76 284.459 22.36C284.459 23.01 284.929 23.42 285.699 23.42ZM292.485 24C291.595 24 291.035 23.46 291.035 22.6V19.22H289.445V18.5H291.035V16.95H291.835V18.5H294.095V19.22H291.835V22.6C291.835 23.02 292.085 23.28 292.485 23.28H294.045V24H292.485ZM297.931 24.1C296.651 24.1 295.831 23.28 295.831 21.95V20.55C295.831 19.22 296.651 18.4 297.931 18.4C299.211 18.4 300.031 19.22 300.031 20.47V21.45H296.601V22.03C296.601 22.88 297.111 23.41 297.931 23.41C298.621 23.41 299.111 23.1 299.201 22.61H299.991C299.861 23.53 299.061 24.1 297.931 24.1ZM296.601 20.82H299.261V20.47C299.261 19.58 298.771 19.06 297.931 19.06C297.091 19.06 296.601 19.58 296.601 20.47V20.82ZM309.923 24.1C308.643 24.1 307.853 23.31 307.853 21.95V18.75C307.853 17.39 308.643 16.6 309.923 16.6C311.203 16.6 311.993 17.39 311.993 18.74V21.95C311.993 23.31 311.203 24.1 309.923 24.1ZM309.923 23.39C310.743 23.39 311.203 22.9 311.203 22.03V18.67C311.203 17.8 310.733 17.31 309.923 17.31C309.113 17.31 308.643 17.8 308.643 18.67V22.03C308.643 22.9 309.103 23.39 309.923 23.39ZM313.889 25.8V18.5H314.679V19.5C314.809 18.82 315.369 18.4 316.189 18.4C317.289 18.4 317.999 19.18 317.999 20.43V22.06C317.999 23.31 317.289 24.1 316.189 24.1C315.369 24.1 314.799 23.67 314.679 22.98H314.669L314.679 24.15V25.8H313.889ZM315.939 23.41C316.739 23.41 317.209 22.99 317.209 22.06V20.43C317.209 19.51 316.739 19.09 315.939 19.09C315.159 19.09 314.679 19.6 314.679 20.47V22.03C314.679 22.9 315.159 23.41 315.939 23.41ZM321.915 24.1C320.635 24.1 319.815 23.28 319.815 21.95V20.55C319.815 19.22 320.635 18.4 321.915 18.4C323.195 18.4 324.015 19.22 324.015 20.47V21.45H320.585V22.03C320.585 22.88 321.095 23.41 321.915 23.41C322.605 23.41 323.095 23.1 323.185 22.61H323.975C323.845 23.53 323.045 24.1 321.915 24.1ZM320.585 20.82H323.245V20.47C323.245 19.58 322.755 19.06 321.915 19.06C321.075 19.06 320.585 19.58 320.585 20.47V20.82ZM326.081 24V18.5H326.881V19.52C327.001 18.83 327.531 18.4 328.361 18.4C329.521 18.4 330.151 19.12 330.151 20.37V20.85H329.361V20.37C329.361 19.52 328.931 19.09 328.131 19.09C327.321 19.09 326.881 19.58 326.881 20.47V24H326.081ZM333.467 24.1C332.327 24.1 331.627 23.41 331.627 22.39C331.627 21.4 332.347 20.71 333.397 20.71H335.147V20.25C335.147 19.48 334.737 19.09 333.927 19.09C333.187 19.09 332.707 19.4 332.677 19.9H331.887C331.947 19.03 332.717 18.4 333.927 18.4C335.217 18.4 335.937 19.07 335.937 20.23V24H335.157V22.97H335.147C335.037 23.66 334.407 24.1 333.467 24.1ZM333.667 23.42C334.567 23.42 335.147 22.94 335.147 22.17V21.34H333.467C332.847 21.34 332.427 21.76 332.427 22.36C332.427 23.01 332.897 23.42 333.667 23.42ZM340.453 24C339.563 24 339.003 23.46 339.003 22.6V19.22H337.413V18.5H339.003V16.95H339.803V18.5H342.063V19.22H339.803V22.6C339.803 23.02 340.053 23.28 340.453 23.28H342.013V24H340.453ZM345.9 24.09C344.62 24.09 343.8 23.28 343.8 21.94V20.56C343.8 19.21 344.61 18.41 345.9 18.41C347.19 18.41 348 19.21 348 20.56V21.94C348 23.28 347.19 24.09 345.9 24.09ZM345.9 23.38C346.72 23.38 347.21 22.9 347.21 22.01V20.49C347.21 19.6 346.71 19.12 345.9 19.12C345.09 19.12 344.59 19.6 344.59 20.49V22.01C344.59 22.9 345.08 23.38 345.9 23.38ZM350.066 24V18.5H350.866V19.52C350.986 18.83 351.516 18.4 352.346 18.4C353.506 18.4 354.136 19.12 354.136 20.37V20.85H353.346V20.37C353.346 19.52 352.916 19.09 352.116 19.09C351.306 19.09 350.866 19.58 350.866 20.47V24H350.066Z" fill="black"/>
<path d="M545 108L537.5 103.67V112.33L545 108ZM20.759 108V108.75L538.25 108.75V108V107.25L20.759 107.25V108Z" fill="black"/>
<path d="M23.9484 126.1C22.6384 126.1 21.8984 125.3 21.8984 124.03V118.7H22.6884V124.03C22.6884 124.87 23.1184 125.39 23.9484 125.39C24.7784 125.39 25.2084 124.87 25.2084 124.03V118.7H25.9984V124.03C25.9984 125.31 25.2684 126.1 23.9484 126.1ZM27.9145 127.8V120.5H28.7045V121.5C28.8345 120.82 29.3945 120.4 30.2145 120.4C31.3145 120.4 32.0245 121.18 32.0245 122.43V124.06C32.0245 125.31 31.3145 126.1 30.2145 126.1C29.3945 126.1 28.8245 125.67 28.7045 124.98H28.6945L28.7045 126.15V127.8H27.9145ZM29.9645 125.41C30.7645 125.41 31.2345 124.99 31.2345 124.06V122.43C31.2345 121.51 30.7645 121.09 29.9645 121.09C29.1845 121.09 28.7045 121.6 28.7045 122.47V124.03C28.7045 124.9 29.1845 125.41 29.9645 125.41ZM35.7006 126.09C34.5306 126.09 33.8306 125.51 33.8006 124.53H34.6006C34.6206 125.06 35.0406 125.39 35.7006 125.39H36.2106C36.9006 125.39 37.3006 125.06 37.3006 124.5C37.3006 123.99 37.0506 123.67 36.5706 123.61L35.1306 123.41C34.3306 123.29 33.8706 122.78 33.8706 121.94C33.8706 120.99 34.5706 120.41 35.7006 120.41H36.1706C37.2206 120.41 37.9306 120.98 38.0006 121.82H37.2006C37.1506 121.41 36.7606 121.09 36.1706 121.09H35.7006C35.0506 121.09 34.6506 121.42 34.6506 121.94C34.6506 122.36 34.8906 122.61 35.3206 122.67L36.6806 122.86C37.5906 122.98 38.0806 123.56 38.0806 124.48C38.0806 125.49 37.3906 126.09 36.2106 126.09H35.7006ZM42.4867 126C41.5967 126 41.0367 125.46 41.0367 124.6V121.22H39.4467V120.5H41.0367V118.95H41.8367V120.5H44.0967V121.22H41.8367V124.6C41.8367 125.02 42.0867 125.28 42.4867 125.28H44.0467V126H42.4867ZM46.1028 126V120.5H46.9028V121.52C47.0228 120.83 47.5528 120.4 48.3828 120.4C49.5428 120.4 50.1728 121.12 50.1728 122.37V122.85H49.3828V122.37C49.3828 121.52 48.9528 121.09 48.1528 121.09C47.3428 121.09 46.9028 121.58 46.9028 122.47V126H46.1028ZM53.9288 126.1C52.6488 126.1 51.8288 125.28 51.8288 123.95V122.55C51.8288 121.22 52.6488 120.4 53.9288 120.4C55.2088 120.4 56.0288 121.22 56.0288 122.47V123.45H52.5988V124.03C52.5988 124.88 53.1088 125.41 53.9288 125.41C54.6188 125.41 55.1088 125.1 55.1988 124.61H55.9888C55.8588 125.53 55.0588 126.1 53.9288 126.1ZM52.5988 122.82H55.2588V122.47C55.2588 121.58 54.7688 121.06 53.9288 121.06C53.0888 121.06 52.5988 121.58 52.5988 122.47V122.82ZM59.4849 126.1C58.3449 126.1 57.6449 125.41 57.6449 124.39C57.6449 123.4 58.3649 122.71 59.4149 122.71H61.1649V122.25C61.1649 121.48 60.7549 121.09 59.9449 121.09C59.2049 121.09 58.7249 121.4 58.6949 121.9H57.9049C57.9649 121.03 58.7349 120.4 59.9449 120.4C61.2349 120.4 61.9549 121.07 61.9549 122.23V126H61.1749V124.97H61.1649C61.0549 125.66 60.4249 126.1 59.4849 126.1ZM59.6849 125.42C60.5849 125.42 61.1649 124.94 61.1649 124.17V123.34H59.4849C58.8649 123.34 58.4449 123.76 58.4449 124.36C58.4449 125.01 58.9149 125.42 59.6849 125.42ZM63.561 126V120.5H64.251V121.24H64.271C64.331 120.73 64.691 120.4 65.201 120.4C65.691 120.4 66.051 120.71 66.181 121.2H66.191C66.271 120.7 66.621 120.4 67.141 120.4C67.831 120.4 68.281 120.96 68.281 121.79V126H67.531V121.79C67.531 121.32 67.291 121.02 66.891 121.02C66.501 121.02 66.261 121.31 66.261 121.79V126H65.581V121.79C65.581 121.32 65.341 121.02 64.951 121.02C64.561 121.02 64.311 121.31 64.311 121.79V126H63.561Z" fill="black"/>
<path d="M478.922 126V118.7H480.732C482.122 118.7 483.022 119.57 483.022 120.89V123.8C483.022 125.13 482.122 126 480.732 126H478.922ZM479.712 125.29H480.732C481.662 125.29 482.232 124.73 482.232 123.8V120.89C482.232 119.98 481.652 119.41 480.732 119.41H479.712V125.29ZM486.948 126.09C485.668 126.09 484.848 125.28 484.848 123.94V122.56C484.848 121.21 485.658 120.41 486.948 120.41C488.238 120.41 489.048 121.21 489.048 122.56V123.94C489.048 125.28 488.238 126.09 486.948 126.09ZM486.948 125.38C487.768 125.38 488.258 124.9 488.258 124.01V122.49C488.258 121.6 487.758 121.12 486.948 121.12C486.138 121.12 485.638 121.6 485.638 122.49V124.01C485.638 124.9 486.128 125.38 486.948 125.38ZM491.214 126L490.304 120.5H491.004L491.594 124.44C491.644 124.79 491.684 125.16 491.704 125.39C491.724 125.16 491.764 124.79 491.824 124.44L492.544 120.5H493.344L494.064 124.44C494.124 124.78 494.184 125.14 494.204 125.39C494.224 125.15 494.264 124.78 494.314 124.44L494.914 120.5H495.584L494.644 126H493.744L493.094 122.17C493.034 121.8 492.964 121.32 492.944 121.07C492.924 121.32 492.854 121.8 492.794 122.17L492.114 126H491.214ZM496.911 126V120.5H497.701V121.52C497.821 120.81 498.361 120.4 499.191 120.4C500.281 120.4 500.991 121.14 500.991 122.31V126H500.201V122.44C500.201 121.56 499.731 121.07 498.971 121.07C498.191 121.07 497.701 121.59 497.701 122.47V126H496.911ZM504.697 126.09C503.527 126.09 502.827 125.51 502.797 124.53H503.597C503.617 125.06 504.037 125.39 504.697 125.39H505.207C505.897 125.39 506.297 125.06 506.297 124.5C506.297 123.99 506.047 123.67 505.567 123.61L504.127 123.41C503.327 123.29 502.867 122.78 502.867 121.94C502.867 120.99 503.567 120.41 504.697 120.41H505.167C506.217 120.41 506.927 120.98 506.997 121.82H506.197C506.147 121.41 505.757 121.09 505.167 121.09H504.697C504.047 121.09 503.647 121.42 503.647 121.94C503.647 122.36 503.887 122.61 504.317 122.67L505.677 122.86C506.587 122.98 507.077 123.56 507.077 124.48C507.077 125.49 506.387 126.09 505.207 126.09H504.697ZM511.483 126C510.593 126 510.033 125.46 510.033 124.6V121.22H508.443V120.5H510.033V118.95H510.833V120.5H513.093V121.22H510.833V124.6C510.833 125.02 511.083 125.28 511.483 125.28H513.043V126H511.483ZM515.099 126V120.5H515.899V121.52C516.019 120.83 516.549 120.4 517.379 120.4C518.539 120.4 519.169 121.12 519.169 122.37V122.85H518.379V122.37C518.379 121.52 517.949 121.09 517.149 121.09C516.339 121.09 515.899 121.58 515.899 122.47V126H515.099ZM522.925 126.1C521.645 126.1 520.825 125.28 520.825 123.95V122.55C520.825 121.22 521.645 120.4 522.925 120.4C524.205 120.4 525.025 121.22 525.025 122.47V123.45H521.595V124.03C521.595 124.88 522.105 125.41 522.925 125.41C523.615 125.41 524.105 125.1 524.195 124.61H524.985C524.855 125.53 524.055 126.1 522.925 126.1ZM521.595 122.82H524.255V122.47C524.255 121.58 523.765 121.06 522.925 121.06C522.085 121.06 521.595 121.58 521.595 122.47V122.82ZM528.481 126.1C527.341 126.1 526.641 125.41 526.641 124.39C526.641 123.4 527.361 122.71 528.411 122.71H530.161V122.25C530.161 121.48 529.751 121.09 528.941 121.09C528.201 121.09 527.721 121.4 527.691 121.9H526.901C526.961 121.03 527.731 120.4 528.941 120.4C530.231 120.4 530.951 121.07 530.951 122.23V126H530.171V124.97H530.161C530.051 125.66 529.421 126.1 528.481 126.1ZM528.681 125.42C529.581 125.42 530.161 124.94 530.161 124.17V123.34H528.481C527.861 123.34 527.441 123.76 527.441 124.36C527.441 125.01 527.911 125.42 528.681 125.42ZM532.557 126V120.5H533.247V121.24H533.267C533.327 120.73 533.687 120.4 534.197 120.4C534.687 120.4 535.047 120.71 535.177 121.2H535.187C535.267 120.7 535.617 120.4 536.137 120.4C536.827 120.4 537.277 120.96 537.277 121.79V126H536.527V121.79C536.527 121.32 536.287 121.02 535.887 121.02C535.497 121.02 535.257 121.31 535.257 121.79V126H534.577V121.79C534.577 121.32 534.337 121.02 533.947 121.02C533.557 121.02 533.307 121.31 533.307 121.79V126H532.557Z" fill="black"/>
<defs>
<linearGradient id="paint0_linear_805_4" x1="218" y1="48.5519" x2="364" y2="48.5519" gradientUnits="userSpaceOnUse">
<stop stop-color="#E03781"/>
<stop offset="1" stop-color="#7F52FF"/>
</linearGradient>
</defs>
</svg>
