<svg width="706" height="444" viewBox="0 0 706 444" fill="none" xmlns="http://www.w3.org/2000/svg">
<rect width="706" height="444" fill="white"/>
<rect x="245" y="37" width="219" height="371" rx="12" fill="#F2F2F2"/>
<path d="M354.025 394.503L351.991 391.001L356.032 391.004L354.025 394.503ZM353 141.524L353.35 141.524L354.363 391.353L354.013 391.353L353.663 391.353L352.65 141.524L353 141.524Z" fill="black"/>
<rect x="13" y="37" width="219" height="371" rx="12" fill="#F2F2F2"/>
<path d="M38.183 121.6H44.663V122.53H41.927V130H40.931V122.53H38.183V121.6ZM46.1086 121.6H47.0326V124.852C47.2406 124.484 47.5166 124.202 47.8606 124.006C48.2086 123.81 48.6106 123.712 49.0666 123.712C49.5066 123.712 49.8966 123.806 50.2366 123.994C50.5766 124.182 50.8426 124.46 51.0346 124.828C51.2306 125.192 51.3286 125.63 51.3286 126.142V130H50.3686V126.238C50.3686 125.706 50.2306 125.292 49.9546 124.996C49.6786 124.7 49.2986 124.552 48.8146 124.552C48.4706 124.552 48.1666 124.628 47.9026 124.78C47.6386 124.932 47.4326 125.146 47.2846 125.422C47.1406 125.694 47.0686 126.006 47.0686 126.358V130H46.1086V121.6ZM53.2453 123.856H54.2053V124.876C54.4013 124.528 54.6553 124.262 54.9673 124.078C55.2793 123.89 55.6373 123.796 56.0413 123.796H56.2573V124.798H56.0053C55.6413 124.798 55.3233 124.868 55.0513 125.008C54.7793 125.148 54.5693 125.348 54.4213 125.608C54.2773 125.864 54.2053 126.166 54.2053 126.514V130H53.2453V123.856ZM60.0304 130.144C59.4544 130.144 58.9364 130.006 58.4764 129.73C58.0164 129.454 57.6564 129.072 57.3964 128.584C57.1404 128.092 57.0124 127.536 57.0124 126.916C57.0124 126.312 57.1424 125.766 57.4024 125.278C57.6664 124.79 58.0284 124.408 58.4884 124.132C58.9484 123.852 59.4624 123.712 60.0304 123.712C60.6104 123.712 61.1184 123.85 61.5544 124.126C61.9944 124.402 62.3324 124.784 62.5684 125.272C62.8084 125.76 62.9284 126.312 62.9284 126.928V127.162H57.9904C58.0304 127.582 58.1444 127.954 58.3324 128.278C58.5204 128.602 58.7664 128.854 59.0704 129.034C59.3744 129.214 59.7144 129.304 60.0904 129.304C60.4944 129.304 60.8504 129.23 61.1584 129.082C61.4664 128.934 61.6904 128.732 61.8304 128.476H62.7904C62.7184 128.732 62.5664 128.988 62.3344 129.244C62.1064 129.5 61.7944 129.714 61.3984 129.886C61.0064 130.058 60.5504 130.144 60.0304 130.144ZM61.9324 126.37C61.8524 125.81 61.6484 125.368 61.3204 125.044C60.9964 124.72 60.5704 124.558 60.0424 124.558C59.6864 124.558 59.3664 124.632 59.0824 124.78C58.7984 124.924 58.5644 125.134 58.3804 125.41C58.1964 125.682 58.0744 126.002 58.0144 126.37H61.9324ZM66.673 123.712C67.137 123.712 67.545 123.798 67.897 123.97C68.249 124.138 68.521 124.386 68.713 124.714C68.909 125.038 69.007 125.424 69.007 125.872V130H68.071V128.998C67.899 129.37 67.647 129.654 67.315 129.85C66.983 130.046 66.589 130.144 66.133 130.144C65.741 130.144 65.387 130.068 65.071 129.916C64.755 129.764 64.507 129.554 64.327 129.286C64.147 129.018 64.057 128.714 64.057 128.374C64.057 128.054 64.139 127.76 64.303 127.492C64.471 127.22 64.701 126.998 64.993 126.826C65.289 126.654 65.621 126.548 65.989 126.508L67.627 126.328C67.763 126.312 67.869 126.256 67.945 126.16C68.021 126.064 68.059 125.924 68.059 125.74C68.059 125.496 68.001 125.282 67.885 125.098C67.769 124.914 67.605 124.772 67.393 124.672C67.185 124.568 66.943 124.516 66.667 124.516C66.391 124.516 66.143 124.564 65.923 124.66C65.703 124.752 65.525 124.878 65.389 125.038C65.257 125.194 65.177 125.364 65.149 125.548H64.189C64.237 125.2 64.373 124.888 64.597 124.612C64.825 124.332 65.119 124.112 65.479 123.952C65.839 123.792 66.237 123.712 66.673 123.712ZM65.053 128.32C65.053 128.528 65.107 128.712 65.215 128.872C65.327 129.032 65.481 129.158 65.677 129.25C65.873 129.338 66.097 129.382 66.349 129.382C66.693 129.382 66.993 129.312 67.249 129.172C67.509 129.032 67.709 128.836 67.849 128.584C67.989 128.328 68.059 128.034 68.059 127.702V127L66.121 127.216C65.801 127.252 65.543 127.372 65.347 127.576C65.151 127.78 65.053 128.028 65.053 128.32ZM75.5969 128.98C75.3649 129.352 75.0549 129.64 74.6669 129.844C74.2829 130.044 73.8449 130.144 73.3529 130.144C72.7809 130.144 72.2709 130.01 71.8229 129.742C71.3789 129.47 71.0309 129.09 70.7789 128.602C70.5309 128.114 70.4069 127.556 70.4069 126.928C70.4069 126.3 70.5309 125.742 70.7789 125.254C71.0309 124.766 71.3789 124.388 71.8229 124.12C72.2709 123.848 72.7809 123.712 73.3529 123.712C73.8449 123.712 74.2829 123.814 74.6669 124.018C75.0549 124.218 75.3649 124.504 75.5969 124.876V121.6H76.5569V130H75.5969V128.98ZM71.4149 126.928C71.4149 127.388 71.5029 127.796 71.6789 128.152C71.8549 128.504 72.1009 128.78 72.4169 128.98C72.7329 129.176 73.0949 129.274 73.5029 129.274C73.8789 129.274 74.2169 129.192 74.5169 129.028C74.8209 128.86 75.0649 128.626 75.2489 128.326C75.4369 128.022 75.5529 127.67 75.5969 127.27V126.586C75.5529 126.186 75.4369 125.836 75.2489 125.536C75.0649 125.232 74.8209 124.998 74.5169 124.834C74.2169 124.666 73.8789 124.582 73.5029 124.582C73.0949 124.582 72.7329 124.682 72.4169 124.882C72.1009 125.078 71.8549 125.354 71.6789 125.71C71.5029 126.062 71.4149 126.468 71.4149 126.928ZM82.6577 123.73H80.6297V122.92H81.6977C82.0857 122.92 82.3917 122.802 82.6157 122.566C82.8437 122.326 82.9557 122.004 82.9517 121.6H83.6537V130H82.6577V123.73Z" fill="black"/>
<path d="M331.183 121.6H337.663V122.53H334.927V130H333.931V122.53H331.183V121.6ZM339.109 121.6H340.033V124.852C340.241 124.484 340.517 124.202 340.861 124.006C341.209 123.81 341.611 123.712 342.067 123.712C342.507 123.712 342.897 123.806 343.237 123.994C343.577 124.182 343.843 124.46 344.035 124.828C344.231 125.192 344.329 125.63 344.329 126.142V130H343.369V126.238C343.369 125.706 343.231 125.292 342.955 124.996C342.679 124.7 342.299 124.552 341.815 124.552C341.471 124.552 341.167 124.628 340.903 124.78C340.639 124.932 340.433 125.146 340.285 125.422C340.141 125.694 340.069 126.006 340.069 126.358V130H339.109V121.6ZM346.245 123.856H347.205V124.876C347.401 124.528 347.655 124.262 347.967 124.078C348.279 123.89 348.637 123.796 349.041 123.796H349.257V124.798H349.005C348.641 124.798 348.323 124.868 348.051 125.008C347.779 125.148 347.569 125.348 347.421 125.608C347.277 125.864 347.205 126.166 347.205 126.514V130H346.245V123.856ZM353.03 130.144C352.454 130.144 351.936 130.006 351.476 129.73C351.016 129.454 350.656 129.072 350.396 128.584C350.14 128.092 350.012 127.536 350.012 126.916C350.012 126.312 350.142 125.766 350.402 125.278C350.666 124.79 351.028 124.408 351.488 124.132C351.948 123.852 352.462 123.712 353.03 123.712C353.61 123.712 354.118 123.85 354.554 124.126C354.994 124.402 355.332 124.784 355.568 125.272C355.808 125.76 355.928 126.312 355.928 126.928V127.162H350.99C351.03 127.582 351.144 127.954 351.332 128.278C351.52 128.602 351.766 128.854 352.07 129.034C352.374 129.214 352.714 129.304 353.09 129.304C353.494 129.304 353.85 129.23 354.158 129.082C354.466 128.934 354.69 128.732 354.83 128.476H355.79C355.718 128.732 355.566 128.988 355.334 129.244C355.106 129.5 354.794 129.714 354.398 129.886C354.006 130.058 353.55 130.144 353.03 130.144ZM354.932 126.37C354.852 125.81 354.648 125.368 354.32 125.044C353.996 124.72 353.57 124.558 353.042 124.558C352.686 124.558 352.366 124.632 352.082 124.78C351.798 124.924 351.564 125.134 351.38 125.41C351.196 125.682 351.074 126.002 351.014 126.37H354.932ZM359.673 123.712C360.137 123.712 360.545 123.798 360.897 123.97C361.249 124.138 361.521 124.386 361.713 124.714C361.909 125.038 362.007 125.424 362.007 125.872V130H361.071V128.998C360.899 129.37 360.647 129.654 360.315 129.85C359.983 130.046 359.589 130.144 359.133 130.144C358.741 130.144 358.387 130.068 358.071 129.916C357.755 129.764 357.507 129.554 357.327 129.286C357.147 129.018 357.057 128.714 357.057 128.374C357.057 128.054 357.139 127.76 357.303 127.492C357.471 127.22 357.701 126.998 357.993 126.826C358.289 126.654 358.621 126.548 358.989 126.508L360.627 126.328C360.763 126.312 360.869 126.256 360.945 126.16C361.021 126.064 361.059 125.924 361.059 125.74C361.059 125.496 361.001 125.282 360.885 125.098C360.769 124.914 360.605 124.772 360.393 124.672C360.185 124.568 359.943 124.516 359.667 124.516C359.391 124.516 359.143 124.564 358.923 124.66C358.703 124.752 358.525 124.878 358.389 125.038C358.257 125.194 358.177 125.364 358.149 125.548H357.189C357.237 125.2 357.373 124.888 357.597 124.612C357.825 124.332 358.119 124.112 358.479 123.952C358.839 123.792 359.237 123.712 359.673 123.712ZM358.053 128.32C358.053 128.528 358.107 128.712 358.215 128.872C358.327 129.032 358.481 129.158 358.677 129.25C358.873 129.338 359.097 129.382 359.349 129.382C359.693 129.382 359.993 129.312 360.249 129.172C360.509 129.032 360.709 128.836 360.849 128.584C360.989 128.328 361.059 128.034 361.059 127.702V127L359.121 127.216C358.801 127.252 358.543 127.372 358.347 127.576C358.151 127.78 358.053 128.028 358.053 128.32ZM368.597 128.98C368.365 129.352 368.055 129.64 367.667 129.844C367.283 130.044 366.845 130.144 366.353 130.144C365.781 130.144 365.271 130.01 364.823 129.742C364.379 129.47 364.031 129.09 363.779 128.602C363.531 128.114 363.407 127.556 363.407 126.928C363.407 126.3 363.531 125.742 363.779 125.254C364.031 124.766 364.379 124.388 364.823 124.12C365.271 123.848 365.781 123.712 366.353 123.712C366.845 123.712 367.283 123.814 367.667 124.018C368.055 124.218 368.365 124.504 368.597 124.876V121.6H369.557V130H368.597V128.98ZM364.415 126.928C364.415 127.388 364.503 127.796 364.679 128.152C364.855 128.504 365.101 128.78 365.417 128.98C365.733 129.176 366.095 129.274 366.503 129.274C366.879 129.274 367.217 129.192 367.517 129.028C367.821 128.86 368.065 128.626 368.249 128.326C368.437 128.022 368.553 127.67 368.597 127.27V126.586C368.553 126.186 368.437 125.836 368.249 125.536C368.065 125.232 367.821 124.998 367.517 124.834C367.217 124.666 366.879 124.582 366.503 124.582C366.095 124.582 365.733 124.682 365.417 124.882C365.101 125.078 364.855 125.354 364.679 125.71C364.503 126.062 364.415 126.468 364.415 126.928ZM375.658 123.73H373.63V122.92H374.698C375.086 122.92 375.392 122.802 375.616 122.566C375.844 122.326 375.956 122.004 375.952 121.6H376.654V130H375.658V123.73Z" fill="black"/>
<path d="M98.4877 121.6H104.968V122.53H102.232V130H101.236V122.53H98.4877V121.6ZM106.413 121.6H107.337V124.852C107.545 124.484 107.821 124.202 108.165 124.006C108.513 123.81 108.915 123.712 109.371 123.712C109.811 123.712 110.201 123.806 110.541 123.994C110.881 124.182 111.147 124.46 111.339 124.828C111.535 125.192 111.633 125.63 111.633 126.142V130H110.673V126.238C110.673 125.706 110.535 125.292 110.259 124.996C109.983 124.7 109.603 124.552 109.119 124.552C108.775 124.552 108.471 124.628 108.207 124.78C107.943 124.932 107.737 125.146 107.589 125.422C107.445 125.694 107.373 126.006 107.373 126.358V130H106.413V121.6ZM113.55 123.856H114.51V124.876C114.706 124.528 114.96 124.262 115.272 124.078C115.584 123.89 115.942 123.796 116.346 123.796H116.562V124.798H116.31C115.946 124.798 115.628 124.868 115.356 125.008C115.084 125.148 114.874 125.348 114.726 125.608C114.582 125.864 114.51 126.166 114.51 126.514V130H113.55V123.856ZM120.335 130.144C119.759 130.144 119.241 130.006 118.781 129.73C118.321 129.454 117.961 129.072 117.701 128.584C117.445 128.092 117.317 127.536 117.317 126.916C117.317 126.312 117.447 125.766 117.707 125.278C117.971 124.79 118.333 124.408 118.793 124.132C119.253 123.852 119.767 123.712 120.335 123.712C120.915 123.712 121.423 123.85 121.859 124.126C122.299 124.402 122.637 124.784 122.873 125.272C123.113 125.76 123.233 126.312 123.233 126.928V127.162H118.295C118.335 127.582 118.449 127.954 118.637 128.278C118.825 128.602 119.071 128.854 119.375 129.034C119.679 129.214 120.019 129.304 120.395 129.304C120.799 129.304 121.155 129.23 121.463 129.082C121.771 128.934 121.995 128.732 122.135 128.476H123.095C123.023 128.732 122.871 128.988 122.639 129.244C122.411 129.5 122.099 129.714 121.703 129.886C121.311 130.058 120.855 130.144 120.335 130.144ZM122.237 126.37C122.157 125.81 121.953 125.368 121.625 125.044C121.301 124.72 120.875 124.558 120.347 124.558C119.991 124.558 119.671 124.632 119.387 124.78C119.103 124.924 118.869 125.134 118.685 125.41C118.501 125.682 118.379 126.002 118.319 126.37H122.237ZM126.978 123.712C127.442 123.712 127.85 123.798 128.202 123.97C128.554 124.138 128.826 124.386 129.018 124.714C129.214 125.038 129.312 125.424 129.312 125.872V130H128.376V128.998C128.204 129.37 127.952 129.654 127.62 129.85C127.288 130.046 126.894 130.144 126.438 130.144C126.046 130.144 125.692 130.068 125.376 129.916C125.06 129.764 124.812 129.554 124.632 129.286C124.452 129.018 124.362 128.714 124.362 128.374C124.362 128.054 124.444 127.76 124.608 127.492C124.776 127.22 125.006 126.998 125.298 126.826C125.594 126.654 125.926 126.548 126.294 126.508L127.932 126.328C128.068 126.312 128.174 126.256 128.25 126.16C128.326 126.064 128.364 125.924 128.364 125.74C128.364 125.496 128.306 125.282 128.19 125.098C128.074 124.914 127.91 124.772 127.698 124.672C127.49 124.568 127.248 124.516 126.972 124.516C126.696 124.516 126.448 124.564 126.228 124.66C126.008 124.752 125.83 124.878 125.694 125.038C125.562 125.194 125.482 125.364 125.454 125.548H124.494C124.542 125.2 124.678 124.888 124.902 124.612C125.13 124.332 125.424 124.112 125.784 123.952C126.144 123.792 126.542 123.712 126.978 123.712ZM125.358 128.32C125.358 128.528 125.412 128.712 125.52 128.872C125.632 129.032 125.786 129.158 125.982 129.25C126.178 129.338 126.402 129.382 126.654 129.382C126.998 129.382 127.298 129.312 127.554 129.172C127.814 129.032 128.014 128.836 128.154 128.584C128.294 128.328 128.364 128.034 128.364 127.702V127L126.426 127.216C126.106 127.252 125.848 127.372 125.652 127.576C125.456 127.78 125.358 128.028 125.358 128.32ZM135.902 128.98C135.67 129.352 135.36 129.64 134.972 129.844C134.588 130.044 134.15 130.144 133.658 130.144C133.086 130.144 132.576 130.01 132.128 129.742C131.684 129.47 131.336 129.09 131.084 128.602C130.836 128.114 130.712 127.556 130.712 126.928C130.712 126.3 130.836 125.742 131.084 125.254C131.336 124.766 131.684 124.388 132.128 124.12C132.576 123.848 133.086 123.712 133.658 123.712C134.15 123.712 134.588 123.814 134.972 124.018C135.36 124.218 135.67 124.504 135.902 124.876V121.6H136.862V130H135.902V128.98ZM131.72 126.928C131.72 127.388 131.808 127.796 131.984 128.152C132.16 128.504 132.406 128.78 132.722 128.98C133.038 129.176 133.4 129.274 133.808 129.274C134.184 129.274 134.522 129.192 134.822 129.028C135.126 128.86 135.37 128.626 135.554 128.326C135.742 128.022 135.858 127.67 135.902 127.27V126.586C135.858 126.186 135.742 125.836 135.554 125.536C135.37 125.232 135.126 124.998 134.822 124.834C134.522 124.666 134.184 124.582 133.808 124.582C133.4 124.582 133.038 124.682 132.722 124.882C132.406 125.078 132.16 125.354 131.984 125.71C131.808 126.062 131.72 126.468 131.72 126.928ZM141.521 129.136L144.971 125.914C145.323 125.586 145.577 125.272 145.733 124.972C145.893 124.672 145.973 124.352 145.973 124.012C145.973 123.688 145.899 123.402 145.751 123.154C145.603 122.906 145.395 122.714 145.127 122.578C144.863 122.438 144.559 122.368 144.215 122.368C143.847 122.368 143.517 122.446 143.225 122.602C142.937 122.758 142.711 122.976 142.547 123.256C142.387 123.536 142.307 123.856 142.307 124.216H141.299C141.299 123.696 141.427 123.226 141.683 122.806C141.939 122.386 142.291 122.056 142.739 121.816C143.187 121.576 143.685 121.456 144.233 121.456C144.753 121.456 145.223 121.564 145.643 121.78C146.067 121.996 146.399 122.294 146.639 122.674C146.883 123.05 147.005 123.472 147.005 123.94C147.005 124.392 146.887 124.832 146.651 125.26C146.415 125.684 146.037 126.14 145.517 126.628L142.919 129.07H147.251V130H141.521V129.136Z" fill="black"/>
<path d="M99.2414 70.5H103.486C104.156 70.5 104.744 70.625 105.249 70.875C105.759 71.125 106.151 71.48 106.426 71.94C106.706 72.4 106.846 72.935 106.846 73.545C106.846 74.155 106.704 74.6925 106.419 75.1575C106.139 75.6175 105.741 75.975 105.226 76.23C104.711 76.48 104.111 76.605 103.426 76.605H100.486V81H99.2414V70.5ZM103.486 75.4425C103.896 75.4425 104.254 75.365 104.559 75.21C104.869 75.055 105.106 74.835 105.271 74.55C105.441 74.265 105.526 73.93 105.526 73.545C105.526 73.165 105.441 72.8325 105.271 72.5475C105.106 72.2625 104.869 72.045 104.559 71.895C104.254 71.74 103.896 71.6625 103.486 71.6625H100.486V75.4425H103.486ZM110.936 73.14C111.516 73.14 112.026 73.2475 112.466 73.4625C112.906 73.6725 113.246 73.9825 113.486 74.3925C113.731 74.7975 113.854 75.28 113.854 75.84V81H112.684V79.7475C112.469 80.2125 112.154 80.5675 111.739 80.8125C111.324 81.0575 110.831 81.18 110.261 81.18C109.771 81.18 109.329 81.085 108.934 80.895C108.539 80.705 108.229 80.4425 108.004 80.1075C107.779 79.7725 107.666 79.3925 107.666 78.9675C107.666 78.5675 107.769 78.2 107.974 77.865C108.184 77.525 108.471 77.2475 108.836 77.0325C109.206 76.8175 109.621 76.685 110.081 76.635L112.129 76.41C112.299 76.39 112.431 76.32 112.526 76.2C112.621 76.08 112.669 75.905 112.669 75.675C112.669 75.37 112.596 75.1025 112.451 74.8725C112.306 74.6425 112.101 74.465 111.836 74.34C111.576 74.21 111.274 74.145 110.929 74.145C110.584 74.145 110.274 74.205 109.999 74.325C109.724 74.44 109.501 74.5975 109.331 74.7975C109.166 74.9925 109.066 75.205 109.031 75.435H107.831C107.891 75 108.061 74.61 108.341 74.265C108.626 73.915 108.994 73.64 109.444 73.44C109.894 73.24 110.391 73.14 110.936 73.14ZM108.911 78.9C108.911 79.16 108.979 79.39 109.114 79.59C109.254 79.79 109.446 79.9475 109.691 80.0625C109.936 80.1725 110.216 80.2275 110.531 80.2275C110.961 80.2275 111.336 80.14 111.656 79.965C111.981 79.79 112.231 79.545 112.406 79.23C112.581 78.91 112.669 78.5425 112.669 78.1275V77.25L110.246 77.52C109.846 77.565 109.524 77.715 109.279 77.97C109.034 78.225 108.911 78.535 108.911 78.9ZM116.256 73.32H117.456V74.595C117.701 74.16 118.018 73.8275 118.408 73.5975C118.798 73.3625 119.246 73.245 119.751 73.245H120.021V74.4975H119.706C119.251 74.4975 118.853 74.585 118.513 74.76C118.173 74.935 117.911 75.185 117.726 75.51C117.546 75.83 117.456 76.2075 117.456 76.6425V81H116.256V73.32ZM124.178 73.14C124.758 73.14 125.268 73.2475 125.708 73.4625C126.148 73.6725 126.488 73.9825 126.728 74.3925C126.973 74.7975 127.096 75.28 127.096 75.84V81H125.926V79.7475C125.711 80.2125 125.396 80.5675 124.981 80.8125C124.566 81.0575 124.073 81.18 123.503 81.18C123.013 81.18 122.571 81.085 122.176 80.895C121.781 80.705 121.471 80.4425 121.246 80.1075C121.021 79.7725 120.908 79.3925 120.908 78.9675C120.908 78.5675 121.011 78.2 121.216 77.865C121.426 77.525 121.713 77.2475 122.078 77.0325C122.448 76.8175 122.863 76.685 123.323 76.635L125.371 76.41C125.541 76.39 125.673 76.32 125.768 76.2C125.863 76.08 125.911 75.905 125.911 75.675C125.911 75.37 125.838 75.1025 125.693 74.8725C125.548 74.6425 125.343 74.465 125.078 74.34C124.818 74.21 124.516 74.145 124.171 74.145C123.826 74.145 123.516 74.205 123.241 74.325C122.966 74.44 122.743 74.5975 122.573 74.7975C122.408 74.9925 122.308 75.205 122.273 75.435H121.073C121.133 75 121.303 74.61 121.583 74.265C121.868 73.915 122.236 73.64 122.686 73.44C123.136 73.24 123.633 73.14 124.178 73.14ZM122.153 78.9C122.153 79.16 122.221 79.39 122.356 79.59C122.496 79.79 122.688 79.9475 122.933 80.0625C123.178 80.1725 123.458 80.2275 123.773 80.2275C124.203 80.2275 124.578 80.14 124.898 79.965C125.223 79.79 125.473 79.545 125.648 79.23C125.823 78.91 125.911 78.5425 125.911 78.1275V77.25L123.488 77.52C123.088 77.565 122.766 77.715 122.521 77.97C122.276 78.225 122.153 78.535 122.153 78.9ZM129.498 70.5H130.698V81H129.498V70.5ZM133.321 70.5H134.521V81H133.321V70.5ZM140.265 81.18C139.545 81.18 138.897 81.0075 138.322 80.6625C137.747 80.3175 137.297 79.84 136.972 79.23C136.652 78.615 136.492 77.92 136.492 77.145C136.492 76.39 136.655 75.7075 136.98 75.0975C137.31 74.4875 137.762 74.01 138.337 73.665C138.912 73.315 139.555 73.14 140.265 73.14C140.99 73.14 141.625 73.3125 142.17 73.6575C142.72 74.0025 143.142 74.48 143.437 75.09C143.737 75.7 143.887 76.39 143.887 77.16V77.4525H137.715C137.765 77.9775 137.907 78.4425 138.142 78.8475C138.377 79.2525 138.685 79.5675 139.065 79.7925C139.445 80.0175 139.87 80.13 140.34 80.13C140.845 80.13 141.29 80.0375 141.675 79.8525C142.06 79.6675 142.34 79.415 142.515 79.095H143.715C143.625 79.415 143.435 79.735 143.145 80.055C142.86 80.375 142.47 80.6425 141.975 80.8575C141.485 81.0725 140.915 81.18 140.265 81.18ZM142.642 76.4625C142.542 75.7625 142.287 75.21 141.877 74.805C141.472 74.4 140.94 74.1975 140.28 74.1975C139.835 74.1975 139.435 74.29 139.08 74.475C138.725 74.655 138.432 74.9175 138.202 75.2625C137.972 75.6025 137.82 76.0025 137.745 76.4625H142.642ZM145.86 70.5H147.06V81H145.86V70.5Z" fill="black"/>
<rect x="374" y="199" width="42" height="46" rx="12" transform="rotate(-180 374 199)" fill="#E74266"/>
<rect x="374" y="263" width="42" height="42" rx="12" transform="rotate(-180 374 263)" fill="#C612DE"/>
<rect x="374" y="298" width="42" height="20" rx="9.99999" transform="rotate(-180 374 298)" fill="#7F52FF"/>
<path d="M320.372 81.18C319.412 81.18 318.54 80.945 317.755 80.475C316.975 80 316.362 79.35 315.917 78.525C315.472 77.695 315.25 76.77 315.25 75.75C315.25 74.73 315.472 73.8075 315.917 72.9825C316.362 72.1525 316.975 71.5025 317.755 71.0325C318.54 70.5575 319.412 70.32 320.372 70.32C321.162 70.32 321.9 70.49 322.585 70.83C323.275 71.165 323.842 71.61 324.287 72.165C324.732 72.72 325.002 73.31 325.097 73.935H323.852C323.752 73.51 323.535 73.1075 323.2 72.7275C322.865 72.3475 322.447 72.0425 321.947 71.8125C321.452 71.5775 320.927 71.46 320.372 71.46C319.642 71.46 318.985 71.645 318.4 72.015C317.82 72.38 317.365 72.89 317.035 73.545C316.705 74.195 316.54 74.93 316.54 75.75C316.54 76.57 316.705 77.3075 317.035 77.9625C317.365 78.6125 317.82 79.1225 318.4 79.4925C318.985 79.8575 319.642 80.04 320.372 80.04C320.927 80.04 321.452 79.925 321.947 79.695C322.447 79.46 322.865 79.1525 323.2 78.7725C323.535 78.3925 323.752 77.99 323.852 77.565H325.097C325.002 78.19 324.732 78.78 324.287 79.335C323.842 79.89 323.275 80.3375 322.585 80.6775C321.9 81.0125 321.162 81.18 320.372 81.18ZM330.483 81.18C329.753 81.18 329.088 81.0075 328.488 80.6625C327.893 80.3125 327.423 79.8325 327.078 79.2225C326.738 78.6075 326.568 77.92 326.568 77.16C326.568 76.4 326.738 75.715 327.078 75.105C327.423 74.49 327.896 74.01 328.496 73.665C329.096 73.315 329.761 73.14 330.491 73.14C331.221 73.14 331.883 73.315 332.478 73.665C333.073 74.01 333.541 74.4875 333.881 75.0975C334.226 75.7075 334.398 76.395 334.398 77.16C334.398 77.925 334.226 78.6125 333.881 79.2225C333.541 79.8325 333.073 80.3125 332.478 80.6625C331.883 81.0075 331.218 81.18 330.483 81.18ZM327.828 77.16C327.828 77.735 327.943 78.245 328.173 78.69C328.408 79.13 328.728 79.4725 329.133 79.7175C329.543 79.9625 329.998 80.085 330.498 80.085C330.998 80.085 331.448 79.9625 331.848 79.7175C332.248 79.4725 332.563 79.13 332.793 78.69C333.023 78.245 333.138 77.735 333.138 77.16C333.138 76.585 333.023 76.075 332.793 75.63C332.563 75.185 332.246 74.84 331.841 74.595C331.441 74.35 330.991 74.2275 330.491 74.2275C329.991 74.2275 329.538 74.35 329.133 74.595C328.728 74.84 328.408 75.185 328.173 75.63C327.943 76.075 327.828 76.585 327.828 77.16ZM336.376 73.32H337.531V74.565C337.791 74.105 338.136 73.7525 338.566 73.5075C339.001 73.2625 339.503 73.14 340.073 73.14C340.623 73.14 341.111 73.2575 341.536 73.4925C341.961 73.7275 342.293 74.075 342.533 74.535C342.778 74.99 342.901 75.5375 342.901 76.1775V81H341.701V76.2975C341.701 75.6325 341.528 75.115 341.183 74.745C340.838 74.375 340.363 74.19 339.758 74.19C339.328 74.19 338.948 74.285 338.618 74.475C338.288 74.665 338.031 74.9325 337.846 75.2775C337.666 75.6175 337.576 76.0075 337.576 76.4475V81H336.376V73.32ZM348.484 81.18C347.759 81.18 347.104 81.005 346.519 80.655C345.934 80.305 345.474 79.825 345.139 79.215C344.809 78.6 344.644 77.915 344.644 77.16C344.644 76.405 344.809 75.7225 345.139 75.1125C345.474 74.4975 345.934 74.015 346.519 73.665C347.104 73.315 347.759 73.14 348.484 73.14C349.414 73.14 350.194 73.3775 350.824 73.8525C351.454 74.3225 351.857 75.005 352.032 75.9H350.832C350.672 75.35 350.377 74.935 349.947 74.655C349.522 74.37 349.034 74.2275 348.484 74.2275C347.989 74.2275 347.544 74.3525 347.149 74.6025C346.759 74.8525 346.454 75.2 346.234 75.645C346.014 76.09 345.904 76.595 345.904 77.16C345.904 77.72 346.014 78.2225 346.234 78.6675C346.454 79.1125 346.759 79.4625 347.149 79.7175C347.544 79.9675 347.989 80.0925 348.484 80.0925C349.034 80.0925 349.522 79.9525 349.947 79.6725C350.377 79.3875 350.672 78.97 350.832 78.42H352.032C351.917 79 351.692 79.4975 351.357 79.9125C351.022 80.3275 350.607 80.6425 350.112 80.8575C349.617 81.0725 349.074 81.18 348.484 81.18ZM360.283 81H359.128V79.755C358.868 80.215 358.521 80.5675 358.086 80.8125C357.656 81.0575 357.156 81.18 356.586 81.18C356.036 81.18 355.548 81.0625 355.123 80.8275C354.698 80.5925 354.363 80.2475 354.118 79.7925C353.878 79.3325 353.758 78.7825 353.758 78.1425V73.32H354.958V78.0225C354.958 78.6875 355.131 79.205 355.476 79.575C355.821 79.945 356.296 80.13 356.901 80.13C357.331 80.13 357.711 80.035 358.041 79.845C358.371 79.655 358.626 79.39 358.806 79.05C358.991 78.705 359.083 78.3125 359.083 77.8725V73.32H360.283V81ZM362.904 73.32H364.104V74.595C364.349 74.16 364.667 73.8275 365.057 73.5975C365.447 73.3625 365.894 73.245 366.399 73.245H366.669V74.4975H366.354C365.899 74.4975 365.502 74.585 365.162 74.76C364.822 74.935 364.559 75.185 364.374 75.51C364.194 75.83 364.104 76.2075 364.104 76.6425V81H362.904V73.32ZM368.266 73.32H369.466V74.595C369.711 74.16 370.028 73.8275 370.418 73.5975C370.808 73.3625 371.256 73.245 371.761 73.245H372.031V74.4975H371.716C371.261 74.4975 370.863 74.585 370.523 74.76C370.183 74.935 369.921 75.185 369.736 75.51C369.556 75.83 369.466 76.2075 369.466 76.6425V81H368.266V73.32ZM376.747 81.18C376.027 81.18 375.379 81.0075 374.804 80.6625C374.229 80.3175 373.779 79.84 373.454 79.23C373.134 78.615 372.974 77.92 372.974 77.145C372.974 76.39 373.137 75.7075 373.462 75.0975C373.792 74.4875 374.244 74.01 374.819 73.665C375.394 73.315 376.037 73.14 376.747 73.14C377.472 73.14 378.107 73.3125 378.652 73.6575C379.202 74.0025 379.624 74.48 379.919 75.09C380.219 75.7 380.369 76.39 380.369 77.16V77.4525H374.197C374.247 77.9775 374.389 78.4425 374.624 78.8475C374.859 79.2525 375.167 79.5675 375.547 79.7925C375.927 80.0175 376.352 80.13 376.822 80.13C377.327 80.13 377.772 80.0375 378.157 79.8525C378.542 79.6675 378.822 79.415 378.997 79.095H380.197C380.107 79.415 379.917 79.735 379.627 80.055C379.342 80.375 378.952 80.6425 378.457 80.8575C377.967 81.0725 377.397 81.18 376.747 81.18ZM379.124 76.4625C379.024 75.7625 378.769 75.21 378.359 74.805C377.954 74.4 377.422 74.1975 376.762 74.1975C376.317 74.1975 375.917 74.29 375.562 74.475C375.207 74.655 374.914 74.9175 374.684 75.2625C374.454 75.6025 374.302 76.0025 374.227 76.4625H379.124ZM382.343 73.32H383.498V74.565C383.758 74.105 384.103 73.7525 384.533 73.5075C384.968 73.2625 385.47 73.14 386.04 73.14C386.59 73.14 387.078 73.2575 387.503 73.4925C387.928 73.7275 388.26 74.075 388.5 74.535C388.745 74.99 388.868 75.5375 388.868 76.1775V81H387.668V76.2975C387.668 75.6325 387.495 75.115 387.15 74.745C386.805 74.375 386.33 74.19 385.725 74.19C385.295 74.19 384.915 74.285 384.585 74.475C384.255 74.665 383.998 74.9325 383.813 75.2775C383.633 75.6175 383.543 76.0075 383.543 76.4475V81H382.343V73.32ZM393.731 81C393.366 81 393.034 80.9225 392.734 80.7675C392.439 80.6075 392.206 80.39 392.036 80.115C391.866 79.835 391.781 79.525 391.781 79.185L391.774 74.385H390.424L390.431 73.32H391.264C391.454 73.32 391.606 73.26 391.721 73.14C391.841 73.02 391.901 72.8675 391.901 72.6825V71.445H392.981V73.32H394.834L394.826 74.385H392.974L392.981 79.11C392.981 79.345 393.059 79.5425 393.214 79.7025C393.374 79.8575 393.571 79.935 393.806 79.935H394.826V81H393.731Z" fill="black"/>
<rect x="477" y="36" width="219" height="371" rx="12" fill="#F2F2F2"/>
<path d="M526.183 122.6H532.663V123.53H529.927V131H528.931V123.53H526.183V122.6ZM534.109 122.6H535.033V125.852C535.241 125.484 535.517 125.202 535.861 125.006C536.209 124.81 536.611 124.712 537.067 124.712C537.507 124.712 537.897 124.806 538.237 124.994C538.577 125.182 538.843 125.46 539.035 125.828C539.231 126.192 539.329 126.63 539.329 127.142V131H538.369V127.238C538.369 126.706 538.231 126.292 537.955 125.996C537.679 125.7 537.299 125.552 536.815 125.552C536.471 125.552 536.167 125.628 535.903 125.78C535.639 125.932 535.433 126.146 535.285 126.422C535.141 126.694 535.069 127.006 535.069 127.358V131H534.109V122.6ZM541.245 124.856H542.205V125.876C542.401 125.528 542.655 125.262 542.967 125.078C543.279 124.89 543.637 124.796 544.041 124.796H544.257V125.798H544.005C543.641 125.798 543.323 125.868 543.051 126.008C542.779 126.148 542.569 126.348 542.421 126.608C542.277 126.864 542.205 127.166 542.205 127.514V131H541.245V124.856ZM548.03 131.144C547.454 131.144 546.936 131.006 546.476 130.73C546.016 130.454 545.656 130.072 545.396 129.584C545.14 129.092 545.012 128.536 545.012 127.916C545.012 127.312 545.142 126.766 545.402 126.278C545.666 125.79 546.028 125.408 546.488 125.132C546.948 124.852 547.462 124.712 548.03 124.712C548.61 124.712 549.118 124.85 549.554 125.126C549.994 125.402 550.332 125.784 550.568 126.272C550.808 126.76 550.928 127.312 550.928 127.928V128.162H545.99C546.03 128.582 546.144 128.954 546.332 129.278C546.52 129.602 546.766 129.854 547.07 130.034C547.374 130.214 547.714 130.304 548.09 130.304C548.494 130.304 548.85 130.23 549.158 130.082C549.466 129.934 549.69 129.732 549.83 129.476H550.79C550.718 129.732 550.566 129.988 550.334 130.244C550.106 130.5 549.794 130.714 549.398 130.886C549.006 131.058 548.55 131.144 548.03 131.144ZM549.932 127.37C549.852 126.81 549.648 126.368 549.32 126.044C548.996 125.72 548.57 125.558 548.042 125.558C547.686 125.558 547.366 125.632 547.082 125.78C546.798 125.924 546.564 126.134 546.38 126.41C546.196 126.682 546.074 127.002 546.014 127.37H549.932ZM554.673 124.712C555.137 124.712 555.545 124.798 555.897 124.97C556.249 125.138 556.521 125.386 556.713 125.714C556.909 126.038 557.007 126.424 557.007 126.872V131H556.071V129.998C555.899 130.37 555.647 130.654 555.315 130.85C554.983 131.046 554.589 131.144 554.133 131.144C553.741 131.144 553.387 131.068 553.071 130.916C552.755 130.764 552.507 130.554 552.327 130.286C552.147 130.018 552.057 129.714 552.057 129.374C552.057 129.054 552.139 128.76 552.303 128.492C552.471 128.22 552.701 127.998 552.993 127.826C553.289 127.654 553.621 127.548 553.989 127.508L555.627 127.328C555.763 127.312 555.869 127.256 555.945 127.16C556.021 127.064 556.059 126.924 556.059 126.74C556.059 126.496 556.001 126.282 555.885 126.098C555.769 125.914 555.605 125.772 555.393 125.672C555.185 125.568 554.943 125.516 554.667 125.516C554.391 125.516 554.143 125.564 553.923 125.66C553.703 125.752 553.525 125.878 553.389 126.038C553.257 126.194 553.177 126.364 553.149 126.548H552.189C552.237 126.2 552.373 125.888 552.597 125.612C552.825 125.332 553.119 125.112 553.479 124.952C553.839 124.792 554.237 124.712 554.673 124.712ZM553.053 129.32C553.053 129.528 553.107 129.712 553.215 129.872C553.327 130.032 553.481 130.158 553.677 130.25C553.873 130.338 554.097 130.382 554.349 130.382C554.693 130.382 554.993 130.312 555.249 130.172C555.509 130.032 555.709 129.836 555.849 129.584C555.989 129.328 556.059 129.034 556.059 128.702V128L554.121 128.216C553.801 128.252 553.543 128.372 553.347 128.576C553.151 128.78 553.053 129.028 553.053 129.32ZM563.597 129.98C563.365 130.352 563.055 130.64 562.667 130.844C562.283 131.044 561.845 131.144 561.353 131.144C560.781 131.144 560.271 131.01 559.823 130.742C559.379 130.47 559.031 130.09 558.779 129.602C558.531 129.114 558.407 128.556 558.407 127.928C558.407 127.3 558.531 126.742 558.779 126.254C559.031 125.766 559.379 125.388 559.823 125.12C560.271 124.848 560.781 124.712 561.353 124.712C561.845 124.712 562.283 124.814 562.667 125.018C563.055 125.218 563.365 125.504 563.597 125.876V122.6H564.557V131H563.597V129.98ZM559.415 127.928C559.415 128.388 559.503 128.796 559.679 129.152C559.855 129.504 560.101 129.78 560.417 129.98C560.733 130.176 561.095 130.274 561.503 130.274C561.879 130.274 562.217 130.192 562.517 130.028C562.821 129.86 563.065 129.626 563.249 129.326C563.437 129.022 563.553 128.67 563.597 128.27V127.586C563.553 127.186 563.437 126.836 563.249 126.536C563.065 126.232 562.821 125.998 562.517 125.834C562.217 125.666 561.879 125.582 561.503 125.582C561.095 125.582 560.733 125.682 560.417 125.882C560.101 126.078 559.855 126.354 559.679 126.71C559.503 127.062 559.415 127.468 559.415 127.928ZM570.658 124.73H568.63V123.92H569.698C570.086 123.92 570.392 123.802 570.616 123.566C570.844 123.326 570.956 123.004 570.952 122.6H571.654V131H570.658V124.73Z" fill="black"/>
<path d="M600.488 122.6H606.968V123.53H604.232V131H603.236V123.53H600.488V122.6ZM608.413 122.6H609.337V125.852C609.545 125.484 609.821 125.202 610.165 125.006C610.513 124.81 610.915 124.712 611.371 124.712C611.811 124.712 612.201 124.806 612.541 124.994C612.881 125.182 613.147 125.46 613.339 125.828C613.535 126.192 613.633 126.63 613.633 127.142V131H612.673V127.238C612.673 126.706 612.535 126.292 612.259 125.996C611.983 125.7 611.603 125.552 611.119 125.552C610.775 125.552 610.471 125.628 610.207 125.78C609.943 125.932 609.737 126.146 609.589 126.422C609.445 126.694 609.373 127.006 609.373 127.358V131H608.413V122.6ZM615.55 124.856H616.51V125.876C616.706 125.528 616.96 125.262 617.272 125.078C617.584 124.89 617.942 124.796 618.346 124.796H618.562V125.798H618.31C617.946 125.798 617.628 125.868 617.356 126.008C617.084 126.148 616.874 126.348 616.726 126.608C616.582 126.864 616.51 127.166 616.51 127.514V131H615.55V124.856ZM622.335 131.144C621.759 131.144 621.241 131.006 620.781 130.73C620.321 130.454 619.961 130.072 619.701 129.584C619.445 129.092 619.317 128.536 619.317 127.916C619.317 127.312 619.447 126.766 619.707 126.278C619.971 125.79 620.333 125.408 620.793 125.132C621.253 124.852 621.767 124.712 622.335 124.712C622.915 124.712 623.423 124.85 623.859 125.126C624.299 125.402 624.637 125.784 624.873 126.272C625.113 126.76 625.233 127.312 625.233 127.928V128.162H620.295C620.335 128.582 620.449 128.954 620.637 129.278C620.825 129.602 621.071 129.854 621.375 130.034C621.679 130.214 622.019 130.304 622.395 130.304C622.799 130.304 623.155 130.23 623.463 130.082C623.771 129.934 623.995 129.732 624.135 129.476H625.095C625.023 129.732 624.871 129.988 624.639 130.244C624.411 130.5 624.099 130.714 623.703 130.886C623.311 131.058 622.855 131.144 622.335 131.144ZM624.237 127.37C624.157 126.81 623.953 126.368 623.625 126.044C623.301 125.72 622.875 125.558 622.347 125.558C621.991 125.558 621.671 125.632 621.387 125.78C621.103 125.924 620.869 126.134 620.685 126.41C620.501 126.682 620.379 127.002 620.319 127.37H624.237ZM628.978 124.712C629.442 124.712 629.85 124.798 630.202 124.97C630.554 125.138 630.826 125.386 631.018 125.714C631.214 126.038 631.312 126.424 631.312 126.872V131H630.376V129.998C630.204 130.37 629.952 130.654 629.62 130.85C629.288 131.046 628.894 131.144 628.438 131.144C628.046 131.144 627.692 131.068 627.376 130.916C627.06 130.764 626.812 130.554 626.632 130.286C626.452 130.018 626.362 129.714 626.362 129.374C626.362 129.054 626.444 128.76 626.608 128.492C626.776 128.22 627.006 127.998 627.298 127.826C627.594 127.654 627.926 127.548 628.294 127.508L629.932 127.328C630.068 127.312 630.174 127.256 630.25 127.16C630.326 127.064 630.364 126.924 630.364 126.74C630.364 126.496 630.306 126.282 630.19 126.098C630.074 125.914 629.91 125.772 629.698 125.672C629.49 125.568 629.248 125.516 628.972 125.516C628.696 125.516 628.448 125.564 628.228 125.66C628.008 125.752 627.83 125.878 627.694 126.038C627.562 126.194 627.482 126.364 627.454 126.548H626.494C626.542 126.2 626.678 125.888 626.902 125.612C627.13 125.332 627.424 125.112 627.784 124.952C628.144 124.792 628.542 124.712 628.978 124.712ZM627.358 129.32C627.358 129.528 627.412 129.712 627.52 129.872C627.632 130.032 627.786 130.158 627.982 130.25C628.178 130.338 628.402 130.382 628.654 130.382C628.998 130.382 629.298 130.312 629.554 130.172C629.814 130.032 630.014 129.836 630.154 129.584C630.294 129.328 630.364 129.034 630.364 128.702V128L628.426 128.216C628.106 128.252 627.848 128.372 627.652 128.576C627.456 128.78 627.358 129.028 627.358 129.32ZM637.902 129.98C637.67 130.352 637.36 130.64 636.972 130.844C636.588 131.044 636.15 131.144 635.658 131.144C635.086 131.144 634.576 131.01 634.128 130.742C633.684 130.47 633.336 130.09 633.084 129.602C632.836 129.114 632.712 128.556 632.712 127.928C632.712 127.3 632.836 126.742 633.084 126.254C633.336 125.766 633.684 125.388 634.128 125.12C634.576 124.848 635.086 124.712 635.658 124.712C636.15 124.712 636.588 124.814 636.972 125.018C637.36 125.218 637.67 125.504 637.902 125.876V122.6H638.862V131H637.902V129.98ZM633.72 127.928C633.72 128.388 633.808 128.796 633.984 129.152C634.16 129.504 634.406 129.78 634.722 129.98C635.038 130.176 635.4 130.274 635.808 130.274C636.184 130.274 636.522 130.192 636.822 130.028C637.126 129.86 637.37 129.626 637.554 129.326C637.742 129.022 637.858 128.67 637.902 128.27V127.586C637.858 127.186 637.742 126.836 637.554 126.536C637.37 126.232 637.126 125.998 636.822 125.834C636.522 125.666 636.184 125.582 635.808 125.582C635.4 125.582 635.038 125.682 634.722 125.882C634.406 126.078 634.16 126.354 633.984 126.71C633.808 127.062 633.72 127.468 633.72 127.928ZM643.521 130.136L646.971 126.914C647.323 126.586 647.577 126.272 647.733 125.972C647.893 125.672 647.973 125.352 647.973 125.012C647.973 124.688 647.899 124.402 647.751 124.154C647.603 123.906 647.395 123.714 647.127 123.578C646.863 123.438 646.559 123.368 646.215 123.368C645.847 123.368 645.517 123.446 645.225 123.602C644.937 123.758 644.711 123.976 644.547 124.256C644.387 124.536 644.307 124.856 644.307 125.216H643.299C643.299 124.696 643.427 124.226 643.683 123.806C643.939 123.386 644.291 123.056 644.739 122.816C645.187 122.576 645.685 122.456 646.233 122.456C646.753 122.456 647.223 122.564 647.643 122.78C648.067 122.996 648.399 123.294 648.639 123.674C648.883 124.05 649.005 124.472 649.005 124.94C649.005 125.392 648.887 125.832 648.651 126.26C648.415 126.684 648.037 127.14 647.517 127.628L644.919 130.07H649.251V131H643.521V130.136Z" fill="black"/>
<path d="M503.385 70.5H507.63C508.3 70.5 508.888 70.625 509.393 70.875C509.903 71.125 510.295 71.48 510.57 71.94C510.85 72.4 510.99 72.935 510.99 73.545C510.99 74.155 510.848 74.6925 510.563 75.1575C510.283 75.6175 509.885 75.975 509.37 76.23C508.855 76.48 508.255 76.605 507.57 76.605H504.63V81H503.385V70.5ZM507.63 75.4425C508.04 75.4425 508.398 75.365 508.703 75.21C509.013 75.055 509.25 74.835 509.415 74.55C509.585 74.265 509.67 73.93 509.67 73.545C509.67 73.165 509.585 72.8325 509.415 72.5475C509.25 72.2625 509.013 72.045 508.703 71.895C508.398 71.74 508.04 71.6625 507.63 71.6625H504.63V75.4425H507.63ZM515.08 73.14C515.66 73.14 516.17 73.2475 516.61 73.4625C517.05 73.6725 517.39 73.9825 517.63 74.3925C517.875 74.7975 517.998 75.28 517.998 75.84V81H516.828V79.7475C516.613 80.2125 516.298 80.5675 515.883 80.8125C515.468 81.0575 514.975 81.18 514.405 81.18C513.915 81.18 513.473 81.085 513.078 80.895C512.683 80.705 512.373 80.4425 512.148 80.1075C511.923 79.7725 511.81 79.3925 511.81 78.9675C511.81 78.5675 511.913 78.2 512.118 77.865C512.328 77.525 512.615 77.2475 512.98 77.0325C513.35 76.8175 513.765 76.685 514.225 76.635L516.273 76.41C516.443 76.39 516.575 76.32 516.67 76.2C516.765 76.08 516.813 75.905 516.813 75.675C516.813 75.37 516.74 75.1025 516.595 74.8725C516.45 74.6425 516.245 74.465 515.98 74.34C515.72 74.21 515.418 74.145 515.073 74.145C514.728 74.145 514.418 74.205 514.143 74.325C513.868 74.44 513.645 74.5975 513.475 74.7975C513.31 74.9925 513.21 75.205 513.175 75.435H511.975C512.035 75 512.205 74.61 512.485 74.265C512.77 73.915 513.138 73.64 513.588 73.44C514.038 73.24 514.535 73.14 515.08 73.14ZM513.055 78.9C513.055 79.16 513.123 79.39 513.258 79.59C513.398 79.79 513.59 79.9475 513.835 80.0625C514.08 80.1725 514.36 80.2275 514.675 80.2275C515.105 80.2275 515.48 80.14 515.8 79.965C516.125 79.79 516.375 79.545 516.55 79.23C516.725 78.91 516.813 78.5425 516.813 78.1275V77.25L514.39 77.52C513.99 77.565 513.668 77.715 513.423 77.97C513.178 78.225 513.055 78.535 513.055 78.9ZM520.4 73.32H521.6V74.595C521.845 74.16 522.162 73.8275 522.552 73.5975C522.942 73.3625 523.39 73.245 523.895 73.245H524.165V74.4975H523.85C523.395 74.4975 522.997 74.585 522.657 74.76C522.317 74.935 522.055 75.185 521.87 75.51C521.69 75.83 521.6 76.2075 521.6 76.6425V81H520.4V73.32ZM528.322 73.14C528.902 73.14 529.412 73.2475 529.852 73.4625C530.292 73.6725 530.632 73.9825 530.872 74.3925C531.117 74.7975 531.24 75.28 531.24 75.84V81H530.07V79.7475C529.855 80.2125 529.54 80.5675 529.125 80.8125C528.71 81.0575 528.217 81.18 527.647 81.18C527.157 81.18 526.715 81.085 526.32 80.895C525.925 80.705 525.615 80.4425 525.39 80.1075C525.165 79.7725 525.052 79.3925 525.052 78.9675C525.052 78.5675 525.155 78.2 525.36 77.865C525.57 77.525 525.857 77.2475 526.222 77.0325C526.592 76.8175 527.007 76.685 527.467 76.635L529.515 76.41C529.685 76.39 529.817 76.32 529.912 76.2C530.007 76.08 530.055 75.905 530.055 75.675C530.055 75.37 529.982 75.1025 529.837 74.8725C529.692 74.6425 529.487 74.465 529.222 74.34C528.962 74.21 528.66 74.145 528.315 74.145C527.97 74.145 527.66 74.205 527.385 74.325C527.11 74.44 526.887 74.5975 526.717 74.7975C526.552 74.9925 526.452 75.205 526.417 75.435H525.217C525.277 75 525.447 74.61 525.727 74.265C526.012 73.915 526.38 73.64 526.83 73.44C527.28 73.24 527.777 73.14 528.322 73.14ZM526.297 78.9C526.297 79.16 526.365 79.39 526.5 79.59C526.64 79.79 526.832 79.9475 527.077 80.0625C527.322 80.1725 527.602 80.2275 527.917 80.2275C528.347 80.2275 528.722 80.14 529.042 79.965C529.367 79.79 529.617 79.545 529.792 79.23C529.967 78.91 530.055 78.5425 530.055 78.1275V77.25L527.632 77.52C527.232 77.565 526.91 77.715 526.665 77.97C526.42 78.225 526.297 78.535 526.297 78.9ZM533.642 70.5H534.842V81H533.642V70.5ZM537.465 70.5H538.665V81H537.465V70.5ZM544.409 81.18C543.689 81.18 543.041 81.0075 542.466 80.6625C541.891 80.3175 541.441 79.84 541.116 79.23C540.796 78.615 540.636 77.92 540.636 77.145C540.636 76.39 540.799 75.7075 541.124 75.0975C541.454 74.4875 541.906 74.01 542.481 73.665C543.056 73.315 543.699 73.14 544.409 73.14C545.134 73.14 545.769 73.3125 546.314 73.6575C546.864 74.0025 547.286 74.48 547.581 75.09C547.881 75.7 548.031 76.39 548.031 77.16V77.4525H541.859C541.909 77.9775 542.051 78.4425 542.286 78.8475C542.521 79.2525 542.829 79.5675 543.209 79.7925C543.589 80.0175 544.014 80.13 544.484 80.13C544.989 80.13 545.434 80.0375 545.819 79.8525C546.204 79.6675 546.484 79.415 546.659 79.095H547.859C547.769 79.415 547.579 79.735 547.289 80.055C547.004 80.375 546.614 80.6425 546.119 80.8575C545.629 81.0725 545.059 81.18 544.409 81.18ZM546.786 76.4625C546.686 75.7625 546.431 75.21 546.021 74.805C545.616 74.4 545.084 74.1975 544.424 74.1975C543.979 74.1975 543.579 74.29 543.224 74.475C542.869 74.655 542.576 74.9175 542.346 75.2625C542.116 75.6025 541.964 76.0025 541.889 76.4625H546.786ZM550.004 70.5H551.204V81H550.004V70.5ZM560.241 73.14C560.821 73.14 561.331 73.2475 561.771 73.4625C562.211 73.6725 562.551 73.9825 562.791 74.3925C563.036 74.7975 563.159 75.28 563.159 75.84V81H561.989V79.7475C561.774 80.2125 561.459 80.5675 561.044 80.8125C560.629 81.0575 560.136 81.18 559.566 81.18C559.076 81.18 558.634 81.085 558.239 80.895C557.844 80.705 557.534 80.4425 557.309 80.1075C557.084 79.7725 556.971 79.3925 556.971 78.9675C556.971 78.5675 557.074 78.2 557.279 77.865C557.489 77.525 557.776 77.2475 558.141 77.0325C558.511 76.8175 558.926 76.685 559.386 76.635L561.434 76.41C561.604 76.39 561.736 76.32 561.831 76.2C561.926 76.08 561.974 75.905 561.974 75.675C561.974 75.37 561.901 75.1025 561.756 74.8725C561.611 74.6425 561.406 74.465 561.141 74.34C560.881 74.21 560.579 74.145 560.234 74.145C559.889 74.145 559.579 74.205 559.304 74.325C559.029 74.44 558.806 74.5975 558.636 74.7975C558.471 74.9925 558.371 75.205 558.336 75.435H557.136C557.196 75 557.366 74.61 557.646 74.265C557.931 73.915 558.299 73.64 558.749 73.44C559.199 73.24 559.696 73.14 560.241 73.14ZM558.216 78.9C558.216 79.16 558.284 79.39 558.419 79.59C558.559 79.79 558.751 79.9475 558.996 80.0625C559.241 80.1725 559.521 80.2275 559.836 80.2275C560.266 80.2275 560.641 80.14 560.961 79.965C561.286 79.79 561.536 79.545 561.711 79.23C561.886 78.91 561.974 78.5425 561.974 78.1275V77.25L559.551 77.52C559.151 77.565 558.829 77.715 558.584 77.97C558.339 78.225 558.216 78.535 558.216 78.9ZM565.561 73.32H566.716V74.565C566.976 74.105 567.321 73.7525 567.751 73.5075C568.186 73.2625 568.689 73.14 569.259 73.14C569.809 73.14 570.296 73.2575 570.721 73.4925C571.146 73.7275 571.479 74.075 571.719 74.535C571.964 74.99 572.086 75.5375 572.086 76.1775V81H570.886V76.2975C570.886 75.6325 570.714 75.115 570.369 74.745C570.024 74.375 569.549 74.19 568.944 74.19C568.514 74.19 568.134 74.285 567.804 74.475C567.474 74.665 567.216 74.9325 567.031 75.2775C566.851 75.6175 566.761 76.0075 566.761 76.4475V81H565.561V73.32ZM580.317 79.725C580.027 80.19 579.639 80.55 579.154 80.805C578.674 81.055 578.127 81.18 577.512 81.18C576.797 81.18 576.159 81.0125 575.599 80.6775C575.044 80.3375 574.609 79.8625 574.294 79.2525C573.984 78.6425 573.829 77.945 573.829 77.16C573.829 76.375 573.984 75.6775 574.294 75.0675C574.609 74.4575 575.044 73.985 575.599 73.65C576.159 73.31 576.797 73.14 577.512 73.14C578.127 73.14 578.674 73.2675 579.154 73.5225C579.639 73.7725 580.027 74.13 580.317 74.595V70.5H581.517V81H580.317V79.725ZM575.089 77.16C575.089 77.735 575.199 78.245 575.419 78.69C575.639 79.13 575.947 79.475 576.342 79.725C576.737 79.97 577.189 80.0925 577.699 80.0925C578.169 80.0925 578.592 79.99 578.967 79.785C579.347 79.575 579.652 79.2825 579.882 78.9075C580.117 78.5275 580.262 78.0875 580.317 77.5875V76.7325C580.262 76.2325 580.117 75.795 579.882 75.42C579.652 75.04 579.347 74.7475 578.967 74.5425C578.592 74.3325 578.169 74.2275 577.699 74.2275C577.189 74.2275 576.737 74.3525 576.342 74.6025C575.947 74.8475 575.639 75.1925 575.419 75.6375C575.199 76.0775 575.089 76.585 575.089 77.16ZM591.994 81.18C591.034 81.18 590.161 80.945 589.376 80.475C588.596 80 587.984 79.35 587.539 78.525C587.094 77.695 586.871 76.77 586.871 75.75C586.871 74.73 587.094 73.8075 587.539 72.9825C587.984 72.1525 588.596 71.5025 589.376 71.0325C590.161 70.5575 591.034 70.32 591.994 70.32C592.784 70.32 593.521 70.49 594.206 70.83C594.896 71.165 595.464 71.61 595.909 72.165C596.354 72.72 596.624 73.31 596.719 73.935H595.474C595.374 73.51 595.156 73.1075 594.821 72.7275C594.486 72.3475 594.069 72.0425 593.569 71.8125C593.074 71.5775 592.549 71.46 591.994 71.46C591.264 71.46 590.606 71.645 590.021 72.015C589.441 72.38 588.986 72.89 588.656 73.545C588.326 74.195 588.161 74.93 588.161 75.75C588.161 76.57 588.326 77.3075 588.656 77.9625C588.986 78.6125 589.441 79.1225 590.021 79.4925C590.606 79.8575 591.264 80.04 591.994 80.04C592.549 80.04 593.074 79.925 593.569 79.695C594.069 79.46 594.486 79.1525 594.821 78.7725C595.156 78.3925 595.374 77.99 595.474 77.565H596.719C596.624 78.19 596.354 78.78 595.909 79.335C595.464 79.89 594.896 80.3375 594.206 80.6775C593.521 81.0125 592.784 81.18 591.994 81.18ZM602.105 81.18C601.375 81.18 600.71 81.0075 600.11 80.6625C599.515 80.3125 599.045 79.8325 598.7 79.2225C598.36 78.6075 598.19 77.92 598.19 77.16C598.19 76.4 598.36 75.715 598.7 75.105C599.045 74.49 599.517 74.01 600.117 73.665C600.717 73.315 601.382 73.14 602.112 73.14C602.842 73.14 603.505 73.315 604.1 73.665C604.695 74.01 605.162 74.4875 605.502 75.0975C605.847 75.7075 606.02 76.395 606.02 77.16C606.02 77.925 605.847 78.6125 605.502 79.2225C605.162 79.8325 604.695 80.3125 604.1 80.6625C603.505 81.0075 602.84 81.18 602.105 81.18ZM599.45 77.16C599.45 77.735 599.565 78.245 599.795 78.69C600.03 79.13 600.35 79.4725 600.755 79.7175C601.165 79.9625 601.62 80.085 602.12 80.085C602.62 80.085 603.07 79.9625 603.47 79.7175C603.87 79.4725 604.185 79.13 604.415 78.69C604.645 78.245 604.76 77.735 604.76 77.16C604.76 76.585 604.645 76.075 604.415 75.63C604.185 75.185 603.867 74.84 603.462 74.595C603.062 74.35 602.612 74.2275 602.112 74.2275C601.612 74.2275 601.16 74.35 600.755 74.595C600.35 74.84 600.03 75.185 599.795 75.63C599.565 76.075 599.45 76.585 599.45 77.16ZM607.998 73.32H609.153V74.565C609.413 74.105 609.758 73.7525 610.188 73.5075C610.623 73.2625 611.125 73.14 611.695 73.14C612.245 73.14 612.733 73.2575 613.158 73.4925C613.583 73.7275 613.915 74.075 614.155 74.535C614.4 74.99 614.523 75.5375 614.523 76.1775V81H613.323V76.2975C613.323 75.6325 613.15 75.115 612.805 74.745C612.46 74.375 611.985 74.19 611.38 74.19C610.95 74.19 610.57 74.285 610.24 74.475C609.91 74.665 609.653 74.9325 609.468 75.2775C609.288 75.6175 609.198 76.0075 609.198 76.4475V81H607.998V73.32ZM620.106 81.18C619.381 81.18 618.726 81.005 618.141 80.655C617.556 80.305 617.096 79.825 616.761 79.215C616.431 78.6 616.266 77.915 616.266 77.16C616.266 76.405 616.431 75.7225 616.761 75.1125C617.096 74.4975 617.556 74.015 618.141 73.665C618.726 73.315 619.381 73.14 620.106 73.14C621.036 73.14 621.816 73.3775 622.446 73.8525C623.076 74.3225 623.478 75.005 623.653 75.9H622.453C622.293 75.35 621.998 74.935 621.568 74.655C621.143 74.37 620.656 74.2275 620.106 74.2275C619.611 74.2275 619.166 74.3525 618.771 74.6025C618.381 74.8525 618.076 75.2 617.856 75.645C617.636 76.09 617.526 76.595 617.526 77.16C617.526 77.72 617.636 78.2225 617.856 78.6675C618.076 79.1125 618.381 79.4625 618.771 79.7175C619.166 79.9675 619.611 80.0925 620.106 80.0925C620.656 80.0925 621.143 79.9525 621.568 79.6725C621.998 79.3875 622.293 78.97 622.453 78.42H623.653C623.538 79 623.313 79.4975 622.978 79.9125C622.643 80.3275 622.228 80.6425 621.733 80.8575C621.238 81.0725 620.696 81.18 620.106 81.18ZM631.905 81H630.75V79.755C630.49 80.215 630.142 80.5675 629.707 80.8125C629.277 81.0575 628.777 81.18 628.207 81.18C627.657 81.18 627.17 81.0625 626.745 80.8275C626.32 80.5925 625.985 80.2475 625.74 79.7925C625.5 79.3325 625.38 78.7825 625.38 78.1425V73.32H626.58V78.0225C626.58 78.6875 626.752 79.205 627.097 79.575C627.442 79.945 627.917 80.13 628.522 80.13C628.952 80.13 629.332 80.035 629.662 79.845C629.992 79.655 630.247 79.39 630.427 79.05C630.612 78.705 630.705 78.3125 630.705 77.8725V73.32H631.905V81ZM634.526 73.32H635.726V74.595C635.971 74.16 636.288 73.8275 636.678 73.5975C637.068 73.3625 637.516 73.245 638.021 73.245H638.291V74.4975H637.976C637.521 74.4975 637.123 74.585 636.783 74.76C636.443 74.935 636.181 75.185 635.996 75.51C635.816 75.83 635.726 76.2075 635.726 76.6425V81H634.526V73.32ZM639.887 73.32H641.087V74.595C641.332 74.16 641.65 73.8275 642.04 73.5975C642.43 73.3625 642.877 73.245 643.382 73.245H643.652V74.4975H643.337C642.882 74.4975 642.485 74.585 642.145 74.76C641.805 74.935 641.542 75.185 641.357 75.51C641.177 75.83 641.087 76.2075 641.087 76.6425V81H639.887V73.32ZM648.369 81.18C647.649 81.18 647.001 81.0075 646.426 80.6625C645.851 80.3175 645.401 79.84 645.076 79.23C644.756 78.615 644.596 77.92 644.596 77.145C644.596 76.39 644.759 75.7075 645.084 75.0975C645.414 74.4875 645.866 74.01 646.441 73.665C647.016 73.315 647.659 73.14 648.369 73.14C649.094 73.14 649.729 73.3125 650.274 73.6575C650.824 74.0025 651.246 74.48 651.541 75.09C651.841 75.7 651.991 76.39 651.991 77.16V77.4525H645.819C645.869 77.9775 646.011 78.4425 646.246 78.8475C646.481 79.2525 646.789 79.5675 647.169 79.7925C647.549 80.0175 647.974 80.13 648.444 80.13C648.949 80.13 649.394 80.0375 649.779 79.8525C650.164 79.6675 650.444 79.415 650.619 79.095H651.819C651.729 79.415 651.539 79.735 651.249 80.055C650.964 80.375 650.574 80.6425 650.079 80.8575C649.589 81.0725 649.019 81.18 648.369 81.18ZM650.746 76.4625C650.646 75.7625 650.391 75.21 649.981 74.805C649.576 74.4 649.044 74.1975 648.384 74.1975C647.939 74.1975 647.539 74.29 647.184 74.475C646.829 74.655 646.536 74.9175 646.306 75.2625C646.076 75.6025 645.924 76.0025 645.849 76.4625H650.746ZM653.964 73.32H655.119V74.565C655.379 74.105 655.724 73.7525 656.154 73.5075C656.589 73.2625 657.092 73.14 657.662 73.14C658.212 73.14 658.699 73.2575 659.124 73.4925C659.549 73.7275 659.882 74.075 660.122 74.535C660.367 74.99 660.489 75.5375 660.489 76.1775V81H659.289V76.2975C659.289 75.6325 659.117 75.115 658.772 74.745C658.427 74.375 657.952 74.19 657.347 74.19C656.917 74.19 656.537 74.285 656.207 74.475C655.877 74.665 655.619 74.9325 655.434 75.2775C655.254 75.6175 655.164 76.0075 655.164 76.4475V81H653.964V73.32ZM665.353 81C664.988 81 664.655 80.9225 664.355 80.7675C664.06 80.6075 663.828 80.39 663.658 80.115C663.488 79.835 663.403 79.525 663.403 79.185L663.395 74.385H662.045L662.053 73.32H662.885C663.075 73.32 663.228 73.26 663.343 73.14C663.463 73.02 663.523 72.8675 663.523 72.6825V71.445H664.603V73.32H666.455L666.448 74.385H664.595L664.603 79.11C664.603 79.345 664.68 79.5425 664.835 79.7025C664.995 79.8575 665.193 79.935 665.428 79.935H666.448V81H665.353Z" fill="black"/>
<rect x="374" y="339" width="42" height="28" rx="12" transform="rotate(-180 374 339)" fill="#C612DE"/>
<rect x="374" y="383" width="42" height="32" rx="12" transform="rotate(-180 374 383)" fill="#E74266"/>
<path d="M551.025 394.503L548.991 391.001L553.032 391.004L551.025 394.503ZM550 141.524L550.35 141.524L551.363 391.353L551.013 391.353L550.663 391.353L549.65 141.524L550 141.524Z" fill="black"/>
<path d="M626.025 394.503L623.991 391.001L628.032 391.004L626.025 394.503ZM625 141.524L625.35 141.524L626.363 391.353L626.013 391.353L625.663 391.353L624.65 141.524L625 141.524Z" fill="black"/>
<rect x="572" y="383" width="42" height="32" rx="12" transform="rotate(-180 572 383)" fill="#E74266"/>
<rect x="572" y="339" width="42" height="28" rx="12" transform="rotate(-180 572 339)" fill="#C612DE"/>
<rect x="572" y="199" width="42" height="46" rx="12" transform="rotate(-180 572 199)" fill="#E74266"/>
<rect x="572" y="263" width="42" height="42" rx="12" transform="rotate(-180 572 263)" fill="#C612DE"/>
<rect x="572" y="298" width="42" height="20" rx="9.99999" transform="rotate(-180 572 298)" fill="#7F52FF"/>
<rect x="647" y="383" width="42" height="32" rx="12" transform="rotate(-180 647 383)" fill="#E74266"/>
<rect x="647" y="347" width="42" height="27" rx="12" transform="rotate(-180 647 347)" fill="#C612DE"/>
<rect x="647" y="171" width="42" height="18" rx="8.99999" transform="rotate(-180 647 171)" fill="#E74266"/>
<rect x="647" y="210" width="42" height="14" rx="6.99999" transform="rotate(-180 647 210)" fill="#E74266"/>
<rect x="647" y="189" width="42" height="13" rx="6.49999" transform="rotate(-180 647 189)" fill="#C612DE"/>
<rect x="647" y="254" width="42" height="31" rx="12" transform="rotate(-180 647 254)" fill="#7F52FF"/>
<rect x="647" y="290" width="42" height="26" rx="12" transform="rotate(-180 647 290)" fill="#C612DE"/>
<rect x="647" y="310" width="42" height="14" rx="6.99999" transform="rotate(-180 647 310)" fill="#E74266"/>
<path d="M187.025 394.503L184.991 391.001L189.032 391.004L187.025 394.503ZM186 141.524L186.35 141.524L187.363 391.353L187.013 391.353L186.663 391.353L185.65 141.524L186 141.524Z" fill="black"/>
<path d="M124.025 394.503L121.991 391.001L126.032 391.004L124.025 394.503ZM123 141.524L123.35 141.524L124.363 391.353L124.013 391.353L123.663 391.353L122.65 141.524L123 141.524Z" fill="black"/>
<path d="M62.0254 394.503L59.9905 391.001L64.0319 391.004L62.0254 394.503ZM61 141.524L61.35 141.524L62.3626 391.353L62.0126 391.353L61.6626 391.353L60.65 141.524L61 141.524Z" fill="black"/>
<rect x="199.975" y="153.32" width="229.393" height="26.4757" rx="12" transform="rotate(90 199.975 153.32)" fill="#7F52FF"/>
<path d="M164.97 123.345H171.45V124.275H168.714V131.745H167.718V124.275H164.97V123.345ZM172.896 123.345H173.82V126.597C174.028 126.229 174.304 125.947 174.648 125.751C174.996 125.555 175.398 125.457 175.854 125.457C176.294 125.457 176.684 125.551 177.024 125.739C177.364 125.927 177.63 126.205 177.822 126.573C178.018 126.937 178.116 127.375 178.116 127.887V131.745H177.156V127.983C177.156 127.451 177.018 127.037 176.742 126.741C176.466 126.445 176.086 126.297 175.602 126.297C175.258 126.297 174.954 126.373 174.69 126.525C174.426 126.677 174.22 126.891 174.072 127.167C173.928 127.439 173.856 127.751 173.856 128.103V131.745H172.896V123.345ZM180.032 125.601H180.992V126.621C181.188 126.273 181.442 126.007 181.754 125.823C182.066 125.635 182.424 125.541 182.828 125.541H183.044V126.543H182.792C182.428 126.543 182.11 126.613 181.838 126.753C181.566 126.893 181.356 127.093 181.208 127.353C181.064 127.609 180.992 127.911 180.992 128.259V131.745H180.032V125.601ZM186.817 131.889C186.241 131.889 185.723 131.751 185.263 131.475C184.803 131.199 184.443 130.817 184.183 130.329C183.927 129.837 183.799 129.281 183.799 128.661C183.799 128.057 183.929 127.511 184.189 127.023C184.453 126.535 184.815 126.153 185.275 125.877C185.735 125.597 186.249 125.457 186.817 125.457C187.397 125.457 187.905 125.595 188.341 125.871C188.781 126.147 189.119 126.529 189.355 127.017C189.595 127.505 189.715 128.057 189.715 128.673V128.907H184.777C184.817 129.327 184.931 129.699 185.119 130.023C185.307 130.347 185.553 130.599 185.857 130.779C186.161 130.959 186.501 131.049 186.877 131.049C187.281 131.049 187.637 130.975 187.945 130.827C188.253 130.679 188.477 130.477 188.617 130.221H189.577C189.505 130.477 189.353 130.733 189.121 130.989C188.893 131.245 188.581 131.459 188.185 131.631C187.793 131.803 187.337 131.889 186.817 131.889ZM188.719 128.115C188.639 127.555 188.435 127.113 188.107 126.789C187.783 126.465 187.357 126.303 186.829 126.303C186.473 126.303 186.153 126.377 185.869 126.525C185.585 126.669 185.351 126.879 185.167 127.155C184.983 127.427 184.861 127.747 184.801 128.115H188.719ZM193.46 125.457C193.924 125.457 194.332 125.543 194.684 125.715C195.036 125.883 195.308 126.131 195.5 126.459C195.696 126.783 195.794 127.169 195.794 127.617V131.745H194.858V130.743C194.686 131.115 194.434 131.399 194.102 131.595C193.77 131.791 193.376 131.889 192.92 131.889C192.528 131.889 192.174 131.813 191.858 131.661C191.542 131.509 191.294 131.299 191.114 131.031C190.934 130.763 190.844 130.459 190.844 130.119C190.844 129.799 190.926 129.505 191.09 129.237C191.258 128.965 191.488 128.743 191.78 128.571C192.076 128.399 192.408 128.293 192.776 128.253L194.414 128.073C194.55 128.057 194.656 128.001 194.732 127.905C194.808 127.809 194.846 127.669 194.846 127.485C194.846 127.241 194.788 127.027 194.672 126.843C194.556 126.659 194.392 126.517 194.18 126.417C193.972 126.313 193.73 126.261 193.454 126.261C193.178 126.261 192.93 126.309 192.71 126.405C192.49 126.497 192.312 126.623 192.176 126.783C192.044 126.939 191.964 127.109 191.936 127.293H190.976C191.024 126.945 191.16 126.633 191.384 126.357C191.612 126.077 191.906 125.857 192.266 125.697C192.626 125.537 193.024 125.457 193.46 125.457ZM191.84 130.065C191.84 130.273 191.894 130.457 192.002 130.617C192.114 130.777 192.268 130.903 192.464 130.995C192.66 131.083 192.884 131.127 193.136 131.127C193.48 131.127 193.78 131.057 194.036 130.917C194.296 130.777 194.496 130.581 194.636 130.329C194.776 130.073 194.846 129.779 194.846 129.447V128.745L192.908 128.961C192.588 128.997 192.33 129.117 192.134 129.321C191.938 129.525 191.84 129.773 191.84 130.065ZM202.384 130.725C202.152 131.097 201.842 131.385 201.454 131.589C201.07 131.789 200.632 131.889 200.14 131.889C199.568 131.889 199.058 131.755 198.61 131.487C198.166 131.215 197.818 130.835 197.566 130.347C197.318 129.859 197.194 129.301 197.194 128.673C197.194 128.045 197.318 127.487 197.566 126.999C197.818 126.511 198.166 126.133 198.61 125.865C199.058 125.593 199.568 125.457 200.14 125.457C200.632 125.457 201.07 125.559 201.454 125.763C201.842 125.963 202.152 126.249 202.384 126.621V123.345H203.344V131.745H202.384V130.725ZM198.202 128.673C198.202 129.133 198.29 129.541 198.466 129.897C198.642 130.249 198.888 130.525 199.204 130.725C199.52 130.921 199.882 131.019 200.29 131.019C200.666 131.019 201.004 130.937 201.304 130.773C201.608 130.605 201.852 130.371 202.036 130.071C202.224 129.767 202.34 129.415 202.384 129.015V128.331C202.34 127.931 202.224 127.581 202.036 127.281C201.852 126.977 201.608 126.743 201.304 126.579C201.004 126.411 200.666 126.327 200.29 126.327C199.882 126.327 199.52 126.427 199.204 126.627C198.888 126.823 198.642 127.099 198.466 127.455C198.29 127.807 198.202 128.213 198.202 128.673ZM210.619 131.889C210.067 131.889 209.567 131.783 209.119 131.571C208.671 131.359 208.313 131.065 208.045 130.689C207.781 130.309 207.641 129.881 207.625 129.405H208.645C208.665 129.713 208.763 129.989 208.939 130.233C209.119 130.477 209.357 130.669 209.653 130.809C209.949 130.945 210.275 131.013 210.631 131.013C211.011 131.013 211.351 130.937 211.651 130.785C211.951 130.629 212.185 130.415 212.353 130.143C212.521 129.867 212.605 129.557 212.605 129.213C212.605 128.861 212.519 128.547 212.347 128.271C212.179 127.995 211.943 127.779 211.639 127.623C211.339 127.467 210.999 127.389 210.619 127.389H209.731V126.549L212.125 124.233H208.105V123.345H213.337V124.197L210.901 126.555C211.433 126.579 211.905 126.707 212.317 126.939C212.733 127.171 213.057 127.485 213.289 127.881C213.521 128.273 213.637 128.717 213.637 129.213C213.637 129.729 213.507 130.191 213.247 130.599C212.991 131.003 212.633 131.319 212.173 131.547C211.717 131.775 211.199 131.889 210.619 131.889Z" fill="black"/>
<rect x="137" y="152" width="230" height="27" rx="12" transform="rotate(90 137 152)" fill="#C612DE"/>
<rect x="74" y="153" width="230" height="26" rx="12" transform="rotate(90 74 153)" fill="#E74266"/>
</svg>
